<svg width="92" height="92" viewBox="0 0 92 92" fill="none" xmlns="http://www.w3.org/2000/svg">
<path d="M82.5664 7.83887H9.43359C4.23182 7.83887 0 12.0707 0 17.2725V63.0703C0 64.8086 2.69531 64.8086 2.69531 63.0703V24.8643H89.3047V74.7275C89.3047 78.4431 86.282 81.4658 82.5664 81.4658H82.207V63.7891C82.207 63.0448 81.6036 62.4414 80.8594 62.4414H49.5938C48.8495 62.4414 48.2461 63.0448 48.2461 63.7891V81.4658H9.43359C5.71802 81.4658 2.69531 78.4431 2.69531 74.7275V70.2578C2.69531 68.5195 0 68.5195 0 70.2578V74.7275C0 79.9293 4.23182 84.1611 9.43359 84.1611H49.5938H80.8594H82.5664C87.7682 84.1611 92 79.9293 92 74.7275V17.2725C92 12.0707 87.7682 7.83887 82.5664 7.83887ZM50.9414 81.4658V65.1367H79.5117V81.4658H50.9414ZM2.69531 22.1689V17.2725C2.69531 13.5569 5.71802 10.5342 9.43359 10.5342H82.5664C86.282 10.5342 89.3047 13.5569 89.3047 17.2725V22.1689H2.69531Z" fill="#7C8DCA"/>
<path d="M11.2305 14.2627C9.84328 14.2627 8.71484 15.3911 8.71484 16.7783C8.71484 18.1655 9.84328 19.2939 11.2305 19.2939C12.6177 19.2939 13.7461 18.1655 13.7461 16.7783C13.7461 15.3911 12.6177 14.2627 11.2305 14.2627ZM11.2305 16.958C11.1315 16.958 11.0508 16.8773 11.0508 16.7783C11.0508 16.6793 11.1315 16.5986 11.2305 16.5986C11.3295 16.5986 11.4102 16.6793 11.4102 16.7783C11.4102 16.8773 11.3295 16.958 11.2305 16.958Z" fill="#7C8DCA"/>
<path d="M19.8555 14.2627C18.4683 14.2627 17.3398 15.3911 17.3398 16.7783C17.3398 18.1655 18.4683 19.2939 19.8555 19.2939C21.2427 19.2939 22.3711 18.1655 22.3711 16.7783C22.3711 15.3911 21.2427 14.2627 19.8555 14.2627ZM19.8555 16.958C19.7565 16.958 19.6758 16.8773 19.6758 16.7783C19.6758 16.6793 19.7565 16.5986 19.8555 16.5986C19.9545 16.5986 20.0352 16.6793 20.0352 16.7783C20.0352 16.8773 19.9545 16.958 19.8555 16.958Z" fill="#7C8DCA"/>
<path d="M28.4805 14.2627C27.0933 14.2627 25.9648 15.3911 25.9648 16.7783C25.9648 18.1655 27.0933 19.2939 28.4805 19.2939C29.8677 19.2939 30.9961 18.1655 30.9961 16.7783C30.9961 15.3911 29.8677 14.2627 28.4805 14.2627ZM28.4805 16.958C28.3815 16.958 28.3008 16.8773 28.3008 16.7783C28.3008 16.6793 28.3815 16.5986 28.4805 16.5986C28.5795 16.5986 28.6602 16.6793 28.6602 16.7783C28.6602 16.8773 28.5795 16.958 28.4805 16.958Z" fill="#7C8DCA"/>
<path d="M81.0391 39.2617C81.7833 39.2617 82.3867 38.6583 82.3867 37.9141V32.1865C82.3867 31.4423 81.7833 30.8389 81.0391 30.8389H10.0625C9.31823 30.8389 8.71484 31.4423 8.71484 32.1865V56.2422C8.71484 56.9865 9.31823 57.5898 10.0625 57.5898H81.0391C81.7833 57.5898 82.3867 56.9865 82.3867 56.2422V45.1016C82.3867 43.3633 79.6914 43.3633 79.6914 45.1016V54.8945H41.5344L62.9433 33.568C62.9542 33.557 62.9636 33.5453 62.974 33.5342H79.6914V37.9141C79.6914 38.6583 80.2948 39.2617 81.0391 39.2617ZM37.7153 54.8945H11.4102V33.5342H59.1582L37.7153 54.8945Z" fill="#7C8DCA"/>
<path d="M73.3125 40.5195H65.6758C63.9375 40.5195 63.9375 43.2148 65.6758 43.2148H73.3125C75.0508 43.2148 75.0508 40.5195 73.3125 40.5195Z" fill="#7C8DCA"/>
<path d="M73.3125 46.4492H58.4883C56.75 46.4492 56.75 49.1445 58.4883 49.1445H73.3125C75.0508 49.1445 75.0508 46.4492 73.3125 46.4492Z" fill="#7C8DCA"/>
<path d="M10.0625 65.1367H39.5313C41.2696 65.1367 41.2696 62.4414 39.5313 62.4414H10.0625C8.32421 62.4414 8.32421 65.1367 10.0625 65.1367Z" fill="#7C8DCA"/>
<path d="M10.0625 71.2461H39.5313C41.2696 71.2461 41.2696 68.5508 39.5313 68.5508H10.0625C8.32421 68.5508 8.32421 71.2461 10.0625 71.2461Z" fill="#7C8DCA"/>
<path d="M10.0625 77.3555H39.5313C41.2696 77.3555 41.2696 74.6602 39.5313 74.6602H10.0625C8.32421 74.6602 8.32421 77.3555 10.0625 77.3555Z" fill="#7C8DCA"/>
</svg>
