<svg width="57" height="57" viewBox="0 0 57 57" fill="none" xmlns="http://www.w3.org/2000/svg">
<g clip-path="url(#clip0)">
<path d="M27.6094 49.207C27.6094 49.8219 28.1077 50.3203 28.7227 50.3203C29.3376 50.3203 29.8359 49.8219 29.8359 49.207C29.8359 48.5921 29.3376 48.0938 28.7227 48.0938C28.1077 48.0938 27.6094 48.5921 27.6094 49.207Z" fill="#1E50FF"/>
<path d="M34.2086 28.7792C37.9137 31.5572 40.4517 36.0012 41.0688 40.7487C42.8639 40.8018 44.3086 42.2777 44.3086 44.0859V48.4173C47.5849 49.3832 49.875 52.3842 49.875 55.8867C49.875 56.5016 49.3766 57 48.7617 57H8.68359C8.06868 57 7.57031 56.5016 7.57031 55.8867C7.57031 52.3847 9.85993 49.3832 13.1367 48.4173V44.0859C13.1367 42.3195 14.5157 40.8696 16.2535 40.7544C16.6179 38.9957 16.45 37.3989 15.9378 35.7363H10.0152C9.52769 35.7363 9.09716 35.4193 8.95191 34.954C7.50073 30.2939 6.12305 24.6387 8.16 16.487C10.537 6.97888 19.7007 0 27.4159 0C29.2015 0 31.2876 0 33.0645 0C33.6794 0 34.1777 0.498367 34.1777 1.11328V7.40028C37.7633 7.92126 40.56 10.9223 40.7831 14.6096L45.5489 19.3754C46.8539 20.6805 46.8544 22.794 45.5489 24.0995L42.8231 26.8244C41.0957 28.5531 38.3308 28.5461 36.6061 26.8853C35.9068 26.323 33.7429 23.1641 30.2726 24.4104C31.2884 26.1012 32.6322 27.5972 34.2086 28.7792ZM15.3633 44.0859V48.0938H24.2695C24.8844 48.0938 25.3828 48.5921 25.3828 49.207C25.3828 49.8219 24.8844 50.3203 24.2695 50.3203H15.3633C12.7162 50.3203 10.4314 52.1646 9.9069 54.7734H47.5384C47.0157 52.1724 44.7378 50.3203 42.082 50.3203H33.1758C32.5609 50.3203 32.0625 49.8219 32.0625 49.207C32.0625 48.5921 32.5609 48.0938 33.1758 48.0938H42.082V44.0859C42.082 43.4719 41.5828 42.9727 40.9688 42.9727H16.4766C15.8625 42.9727 15.3633 43.4719 15.3633 44.0859ZM10.3205 17.0271C8.53008 24.1899 9.52464 29.134 10.8384 33.5098H15.2354C13.8521 29.1371 12.6801 24.8601 14.3757 18.0782C15.5468 13.3868 19.6738 8.95409 25.2715 7.62989V4.43964C25.2715 3.68209 25.4624 2.96846 25.7981 2.34354C19.3911 3.24591 12.2652 9.24589 10.3205 17.0271ZM28.1782 25.2419C25.9325 25.8429 24.0208 25.1406 22.5609 24.4196C22.0095 24.1473 21.7833 23.4794 22.0556 22.9279C22.3278 22.3765 22.9953 22.1508 23.5468 22.423C25.3058 23.2919 26.8136 23.5946 28.607 22.7048C30.65 21.6829 32.7626 21.6303 34.7152 22.5513C36.3552 23.325 37.3454 24.4791 38.119 25.2502C38.984 26.1151 40.3834 26.1156 41.2484 25.2502L43.9746 22.5248C44.4095 22.0899 44.4095 21.385 43.9746 20.9497L38.897 15.8721C38.6883 15.6633 38.5708 15.3802 38.5708 15.085C38.5708 12.0308 36.1008 9.54639 33.0645 9.54639C32.4495 9.54639 31.9512 9.04802 31.9512 8.43311V2.22656H29.7055C28.4883 2.22656 27.498 3.21938 27.498 4.43964V8.53878C27.498 9.08107 27.1075 9.54421 26.5731 9.63597C21.4081 10.5227 17.5664 14.4883 16.5357 18.6179C14.8723 25.2715 16.1504 29.011 17.8177 34.2843C18.4718 36.3552 18.9454 38.1712 18.52 40.7461H38.82C38.2169 36.6939 36.0307 32.9283 32.8731 30.5609C30.9697 29.1332 29.3611 27.308 28.1782 25.2419Z" fill="#1E50FF"/>
<path d="M32.0625 15.1406H34.2891C34.904 15.1406 35.4023 15.639 35.4023 16.2539C35.4023 16.8688 34.904 17.3672 34.2891 17.3672H32.0625C31.4476 17.3672 30.9492 16.8688 30.9492 16.2539C30.9492 15.639 31.4476 15.1406 32.0625 15.1406Z" fill="#1E50FF"/>
</g>
<defs>
<clipPath id="clip0">
<rect width="57" height="57" transform="matrix(-1 0 0 1 57 0)" fill="white"/>
</clipPath>
</defs>
</svg>
