<svg width="58" height="58" viewBox="0 0 58 58" fill="none" xmlns="http://www.w3.org/2000/svg">
<g clip-path="url(#clip0)">
<path d="M49.8479 0H47.3542C46.2581 0 46.2581 1.69946 47.3542 1.69946H49.8479C52.4232 1.69946 54.5184 3.78709 54.5184 6.35305V26.0183C54.5184 28.5844 52.4233 30.6721 49.8479 30.6721H47.0197C46.8331 30.6721 46.6517 30.7335 46.5034 30.8469L41.3136 34.8166V31.5218C41.3136 31.0525 40.9333 30.6721 40.4639 30.6721H30.1221C29.2752 30.6721 28.4613 30.4485 27.7434 30.0235V20.4848C27.7434 18.6981 26.8334 17.1195 25.4515 16.1856V6.35305C25.4515 3.78709 27.5467 1.69946 30.1221 1.69946H42.0292C43.1253 1.69946 43.1253 0 42.0292 0H30.1221C26.6096 0 23.7521 2.85 23.7521 6.35305V15.4387C23.363 15.3458 22.9576 15.2952 22.5405 15.2952H6.98514C4.11633 15.2952 1.78229 17.6232 1.78229 20.4848V22.3196C1.78229 23.4157 3.48175 23.4157 3.48175 22.3196V20.4848C3.48175 18.5603 5.0533 16.9946 6.98514 16.9946H22.5406C24.4724 16.9946 26.0441 18.5603 26.0441 20.4848V30.3618C26.0339 30.4368 26.0343 30.5124 26.0441 30.5868V35.9925C26.0441 36.0993 26.0376 36.2057 26.028 36.3116H24.2756C22.3447 36.3116 20.7349 37.7052 20.4012 39.5369C20.3239 39.566 20.2497 39.6067 20.1809 39.6597L16.3803 42.5942V40.3324C16.3803 39.8631 16 39.4826 15.5306 39.4826H6.98514C5.0533 39.4826 3.48175 37.917 3.48175 35.9925V27.418C3.48175 26.322 1.78229 26.322 1.78229 27.418V35.9926C1.78229 38.8542 4.11633 41.1822 6.98514 41.1822H14.681V44.324C14.681 45.0056 15.5086 45.4144 16.0501 44.9966L20.3367 41.6868V51.2463C20.3367 53.4132 22.1038 55.1758 24.2757 55.1758H29.4902V57.1587C29.4902 57.84 30.3179 58.2494 30.8592 57.8313L34.2985 55.1758H35.3145C37.4865 55.1758 39.2536 53.413 39.2536 51.2463V49.7377C39.2536 48.6416 37.5541 48.6416 37.5541 49.7377V51.2463C37.5541 52.4761 36.5495 53.4764 35.3145 53.4764H34.0086C33.8206 53.4764 33.638 53.5387 33.4893 53.6535L31.1896 55.4289V54.326C31.1896 53.8567 30.8093 53.4763 30.3399 53.4763H24.2756C23.0408 53.4763 22.0361 52.4758 22.0361 51.2462V40.2412C22.0361 39.0114 23.0407 38.0111 24.2756 38.0111H35.3145C36.5494 38.0111 37.5541 39.0115 37.5541 40.2412V44.4127C37.5541 45.5087 39.2536 45.5087 39.2536 44.4127V40.2413C39.2536 38.0745 37.4865 36.3118 35.3145 36.3118H27.7338C27.7402 36.2056 27.7435 31.9138 27.7435 31.9138C28.4928 32.215 29.2961 32.3716 30.1222 32.3716H39.6143V36.5364C39.6143 37.2163 40.4384 37.6257 40.9803 37.2114L47.3075 32.3716H49.848C53.3604 32.3716 56.2179 29.5216 56.2179 26.0185V6.35305C56.2178 2.85 53.3602 0 49.8479 0V0Z" fill="#1E50FF"/>
<path d="M42.1082 6.278C41.0293 6.00257 39.9298 6.85503 39.9298 7.96987C39.9298 9.18794 39.4859 10.3618 38.6805 11.2747L36.3393 13.9239C36.1877 13.6913 35.9258 13.5373 35.6275 13.5373H31.057C30.5876 13.5373 30.2073 13.9178 30.2073 14.3871V24.6705C30.2073 25.1398 30.5876 25.5202 31.057 25.5202H35.6275C35.9709 25.5202 36.2659 25.3162 36.3999 25.0232C37.3252 25.5886 38.3975 25.8942 39.4884 25.8942H47.5656C48.7999 25.8942 49.8181 24.8232 49.7602 23.5921C49.7345 23.047 49.7626 15.7265 49.7626 15.5639C49.7626 14.3525 48.777 13.3668 47.5681 13.3668L43.3678 13.3542L43.5418 12.9424C44.3365 11.0602 44.2057 8.87761 43.1921 7.10371C42.9556 6.68927 42.5705 6.39617 42.1082 6.278C42.5705 6.39617 41.6457 6.15994 42.1082 6.278C42.5705 6.39617 41.0294 6.00257 42.1082 6.278ZM34.7777 23.8208H31.9068V15.2368H34.7777V23.8208ZM47.5656 15.0662C47.84 15.0662 48.0632 15.2894 48.0632 15.5638C48.0632 15.7254 48.0615 16.1642 48.0593 16.7592C48.0467 20.0439 48.0383 23.1548 48.0626 23.6719C48.0714 23.8585 47.9806 23.9829 47.9258 24.0405C47.8309 24.1399 47.703 24.1947 47.5656 24.1947H39.4884C38.5256 24.1947 37.5833 23.861 36.8349 23.2552L36.4772 22.9656V16.3342L39.9544 12.3995C41.0345 11.1754 41.6293 9.60227 41.6293 7.96976C41.6293 7.92172 41.6949 7.90926 41.7166 7.94665C42.4692 9.26351 42.5661 10.8838 41.9762 12.2811L41.3056 13.8694C41.1949 14.1315 41.2228 14.4314 41.3795 14.6686C41.5364 14.9058 41.8015 15.0488 42.0858 15.0497L47.5656 15.0662Z" fill="#1E50FF"/>
<path d="M9.05826 29.5139C8.58887 29.5139 8.20853 29.8944 8.20853 30.3637C8.20853 30.833 8.58887 31.2134 9.05826 31.2134H11.563L11.0951 34.0435C11.0185 34.5064 11.3319 34.9438 11.7949 35.0204C11.8419 35.0283 11.8884 35.032 11.9344 35.032C12.3428 35.032 12.7029 34.7368 12.7718 34.3207L13.2855 31.2135H15.3354L14.8675 34.0436C14.7909 34.5065 15.1043 34.944 15.5672 35.0205C15.6142 35.0284 15.6608 35.0321 15.7068 35.0321C16.1151 35.0321 16.4753 34.737 16.5442 34.3208L17.0579 31.2136H20.4673C20.9367 31.2136 21.3171 30.8332 21.3171 30.3639C21.3171 29.8946 20.9367 29.5142 20.4673 29.5142H17.3388L17.6816 27.4413H20.4673C20.9367 27.4413 21.3171 27.0608 21.3171 26.5915C21.3171 26.1223 20.9367 25.7418 20.4673 25.7418H17.9625L18.4305 22.9118C18.5071 22.4488 18.1937 22.0114 17.7307 21.9348C17.2672 21.858 16.8304 22.1716 16.7538 22.6345L16.2401 25.7417H14.1902L14.6581 22.9116C14.7347 22.4487 14.4213 22.0113 13.9584 21.9347C13.4943 21.8579 13.0581 22.1715 12.9814 22.6344L12.4677 25.7416H9.05826C8.58887 25.7416 8.20853 26.122 8.20853 26.5913C8.20853 27.0606 8.58887 27.441 9.05826 27.441H12.1867L11.844 29.5139H9.05826ZM13.9093 27.441H15.9592L15.6165 29.5139H13.5666L13.9093 27.441Z" fill="#1E50FF"/>
<path d="M29.7848 42.3956C29.0987 41.8307 28.1858 41.6079 27.2702 41.8305C26.0967 42.1154 24.9127 43.2124 24.9127 45.0205C24.9127 46.1459 25.3234 47.1227 26.1682 48.0069C26.8583 48.7292 27.8542 49.416 29.3971 50.234C29.5216 50.3001 29.6584 50.333 29.7951 50.333C29.9319 50.333 30.0686 50.3001 30.1931 50.234C32.8849 48.807 34.6774 47.3744 34.6774 45.0205C34.6774 43.2025 33.4513 42.1168 32.2361 41.8473C31.3232 41.6447 30.4381 41.8597 29.7848 42.3956ZM32.9779 45.0205C32.9779 46.2901 32.1357 47.229 29.795 48.5176C27.4543 47.2289 26.612 46.29 26.612 45.0205C26.612 44.0758 27.159 43.6063 27.671 43.4819C27.7654 43.459 27.8664 43.4461 27.9703 43.4461C28.3554 43.4461 28.7788 43.624 29.0399 44.1301C29.1886 44.4181 29.4893 44.5967 29.8119 44.59C30.1358 44.5835 30.428 44.3934 30.565 44.0997C30.8399 43.5104 31.4182 43.4067 31.8678 43.5065C32.4046 43.6254 32.9779 44.0857 32.9779 45.0205Z" fill="#1E50FF"/>
</g>
<defs>
<clipPath id="clip0">
<rect width="58" height="58" fill="white"/>
</clipPath>
</defs>
</svg>
