<svg width="90" height="90" viewBox="0 0 90 90" fill="none" xmlns="http://www.w3.org/2000/svg">
<g clip-path="url(#clip0)">
<path d="M77.3502 0H73.4807C71.7797 0 71.7797 2.6371 73.4807 2.6371H77.3502C81.3463 2.6371 84.5975 5.87651 84.5975 9.85818V40.3733C84.5975 44.3551 81.3464 47.5946 77.3502 47.5946H72.9615C72.672 47.5946 72.3905 47.6898 72.1604 47.8658L64.1074 54.0257V48.9131C64.1074 48.1849 63.5172 47.5946 62.7888 47.5946H46.7412C45.427 47.5946 44.164 47.2477 43.0501 46.5882V31.7867C43.0501 29.0143 41.638 26.5647 39.4937 25.1156V9.85818C39.4937 5.87651 42.7449 2.6371 46.7412 2.6371H65.2178C66.9185 2.6371 66.9185 0 65.2178 0H46.7412C41.2908 0 36.8566 4.42242 36.8566 9.85818V23.9566C36.2529 23.8125 35.6239 23.7339 34.9766 23.7339H10.839C6.3874 23.7339 2.76561 27.3464 2.76561 31.7867V34.6339C2.76561 36.3347 5.40271 36.3347 5.40271 34.6339V31.7867C5.40271 28.8005 7.84132 26.371 10.839 26.371H34.9767C37.9744 26.371 40.4132 28.8005 40.4132 31.7867V47.1132C40.3974 47.2296 40.3981 47.3468 40.4132 47.4623V55.8504C40.4132 56.0162 40.4032 56.1813 40.3882 56.3455H37.669C34.6728 56.3455 32.1749 58.5081 31.657 61.3504C31.5371 61.3956 31.4219 61.4587 31.3152 61.541L25.4178 66.0945V62.5847C25.4178 61.8565 24.8276 61.2662 24.0992 61.2662H10.839C7.84132 61.2662 5.40271 58.8367 5.40271 55.8504V42.5452C5.40271 40.8445 2.76561 40.8445 2.76561 42.5452V55.8506C2.76561 60.291 6.3874 63.9034 10.839 63.9034H22.7808V68.7786C22.7808 69.8362 24.0651 70.4707 24.9053 69.8223L31.5569 64.6865V79.5202C31.5569 82.8825 34.299 85.6177 37.6692 85.6177H45.7607V88.6945C45.7607 89.7518 47.045 90.387 47.885 89.7382L53.2218 85.6177H54.7984C58.1686 85.6177 60.9107 82.8823 60.9107 79.5202V77.1791C60.9107 75.4784 58.2736 75.4784 58.2736 77.1791V79.5202C58.2736 81.4284 56.7147 82.9806 54.7984 82.9806H52.7719C52.4802 82.9806 52.1968 83.0773 51.9662 83.2554L48.3976 86.0104V84.2989C48.3976 83.5708 47.8074 82.9804 47.0791 82.9804H37.669C35.7529 82.9804 34.1939 81.428 34.1939 79.52V62.4432C34.1939 60.535 35.7527 58.9828 37.669 58.9828H54.7984C56.7145 58.9828 58.2736 60.5352 58.2736 62.4432V68.9162C58.2736 70.617 60.9107 70.617 60.9107 68.9162V62.4434C60.9107 59.0811 58.1686 56.3459 54.7984 56.3459H43.0352C43.0452 56.1811 43.0503 49.5214 43.0503 49.5214C44.2129 49.9889 45.4594 50.2318 46.7414 50.2318H61.4704V56.6945C61.4704 57.7495 62.7493 58.3847 63.5901 57.7418L73.4082 50.2318H77.3504C82.8005 50.2318 87.2347 45.8094 87.2347 40.3735V9.85818C87.2346 4.42242 82.8004 0 77.3502 0V0Z" fill="#7C8DCA"/>
<path d="M65.3403 9.74182C63.6661 9.31443 61.9601 10.6372 61.9601 12.3671C61.9601 14.2572 61.2713 16.0788 60.0214 17.4952L56.3886 21.6061C56.1533 21.2452 55.7469 21.0063 55.284 21.0063H48.1919C47.4636 21.0063 46.8734 21.5966 46.8734 22.3248V38.2819C46.8734 39.0101 47.4636 39.6005 48.1919 39.6005H55.284C55.8169 39.6005 56.2747 39.2838 56.4826 38.8292C57.9184 39.7065 59.5823 40.1808 61.2751 40.1808H73.8087C75.724 40.1808 77.3039 38.5189 77.2141 36.6086C77.1742 35.7626 77.2178 24.4032 77.2178 24.1509C77.2178 22.2712 75.6885 20.7417 73.8126 20.7417L67.2949 20.7222L67.5648 20.0831C68.7981 17.1624 68.595 13.7757 67.0222 11.0231C66.6552 10.38 66.0576 9.92518 65.3403 9.74182C66.0576 9.92518 64.6227 9.55862 65.3403 9.74182C66.0576 9.92518 63.6663 9.31443 65.3403 9.74182ZM53.9654 36.9634H49.5105V23.6434H53.9654V36.9634ZM73.8087 23.3786C74.2345 23.3786 74.5809 23.7249 74.5809 24.1508C74.5809 24.4016 74.5782 25.0825 74.5747 26.0057C74.5552 31.1027 74.5422 35.93 74.5798 36.7324C74.5935 37.0219 74.4527 37.2149 74.3676 37.3043C74.2203 37.4586 74.0218 37.5435 73.8087 37.5435H61.2751C59.7811 37.5435 58.3189 37.0258 57.1576 36.0857L56.6025 35.6364V25.3462L61.9982 19.2406C63.6742 17.3412 64.5972 14.9002 64.5972 12.367C64.5972 12.2924 64.699 12.2731 64.7327 12.3311C65.9004 14.3745 66.0509 16.8887 65.1355 19.0569L64.0949 21.5216C63.9231 21.9282 63.9664 22.3936 64.2095 22.7617C64.453 23.1298 64.8644 23.3517 65.3055 23.3531L73.8087 23.3786Z" fill="#7C8DCA"/>
<path d="M14.0559 45.7973C13.3276 45.7973 12.7374 46.3876 12.7374 47.1158C12.7374 47.844 13.3276 48.4344 14.0559 48.4344H17.9427L17.2166 52.8258C17.0977 53.5442 17.584 54.223 18.3024 54.3418C18.3753 54.354 18.4476 54.3598 18.519 54.3598C19.1526 54.3598 19.7114 53.9018 19.8183 53.256L20.6154 48.4345H23.7963L23.0702 52.826C22.9514 53.5444 23.4377 54.2232 24.156 54.342C24.229 54.3541 24.3012 54.3599 24.3726 54.3599C25.0062 54.3599 25.5651 53.902 25.672 53.2562L26.4691 48.4347H31.7597C32.488 48.4347 33.0782 47.8444 33.0782 47.1162C33.0782 46.388 32.488 45.7976 31.7597 45.7976H26.9051L27.4369 42.5811H31.7597C32.488 42.5811 33.0782 41.9907 33.0782 41.2625C33.0782 40.5343 32.488 39.944 31.7597 39.944H27.8729L28.599 35.5525C28.7179 34.8341 28.2316 34.1554 27.5132 34.0365C26.794 33.9173 26.1161 34.4039 25.9972 35.1223L25.2001 39.9438H22.0193L22.7453 35.5523C22.8642 34.834 22.3779 34.1552 21.6596 34.0363C20.9395 33.9171 20.2626 34.4038 20.1436 35.1221L19.3465 39.9436H14.0559C13.3276 39.9436 12.7374 40.534 12.7374 41.2622C12.7374 41.9904 13.3276 42.5807 14.0559 42.5807H18.9105L18.3787 45.7973H14.0559ZM21.5834 42.5807H24.7643L24.2325 45.7973H21.0516L21.5834 42.5807Z" fill="#7C8DCA"/>
<path d="M46.2178 65.7862C45.1531 64.9096 43.7366 64.5638 42.3158 64.9093C40.4949 65.3514 38.6576 67.0536 38.6576 69.8593C38.6576 71.6056 39.2949 73.1214 40.6059 74.4934C41.6767 75.6141 43.2221 76.6799 45.6162 77.9492C45.8094 78.0517 46.0216 78.1029 46.2338 78.1029C46.446 78.1029 46.6582 78.0517 46.8514 77.9492C51.0282 75.7349 53.8098 73.5118 53.8098 69.8593C53.8098 67.0383 51.9073 65.3535 50.0216 64.9353C48.6049 64.6209 47.2315 64.9546 46.2178 65.7862ZM51.1726 69.8593C51.1726 71.8294 49.8658 73.2863 46.2336 75.2857C42.6015 73.2861 41.2945 71.8292 41.2945 69.8593C41.2945 68.3934 42.1433 67.6649 42.9378 67.4718C43.0842 67.4363 43.241 67.4163 43.4023 67.4163C43.9998 67.4163 44.6568 67.6923 45.0619 68.4776C45.2927 68.9245 45.7593 69.2016 46.2598 69.1912C46.7625 69.1812 47.2159 68.8862 47.4284 68.4305C47.8551 67.5159 48.7524 67.3551 49.45 67.51C50.283 67.6944 51.1726 68.4087 51.1726 69.8593Z" fill="#7C8DCA"/>
</g>
<defs>
<clipPath id="clip0">
<rect width="90" height="90" fill="white"/>
</clipPath>
</defs>
</svg>
