<svg width="60" height="60" viewBox="0 0 60 60" fill="none" xmlns="http://www.w3.org/2000/svg">
<path d="M8.78906 60H28.3594V38.6719H21.3281V31.6406H28.3594V22.8516C28.3594 18.0052 32.3021 14.0625 37.1484 14.0625H45.9375V21.0938H38.9062C36.9676 21.0938 35.3906 22.6707 35.3906 24.6094V31.6406H45.6203L44.4484 38.6719H35.3906V60H51.2109C56.0573 60 60 56.0573 60 51.2109V8.78906C60 3.94272 56.0573 0 51.2109 0H8.78906C3.94272 0 0 3.94272 0 8.78906V51.2109C0 56.0573 3.94272 60 8.78906 60ZM3.51562 8.78906C3.51562 5.88135 5.88135 3.51562 8.78906 3.51562H51.2109C54.1187 3.51562 56.4844 5.88135 56.4844 8.78906V51.2109C56.4844 54.1187 54.1187 56.4844 51.2109 56.4844H38.9062V42.1875H47.4266L49.7704 28.125H38.9062V24.6094H49.4531V10.5469H37.1484C30.3635 10.5469 24.8438 16.0666 24.8438 22.8516V28.125H17.8125V42.1875H24.8438V56.4844H8.78906C5.88135 56.4844 3.51562 54.1187 3.51562 51.2109V8.78906Z" fill="#1E50FF"/>
</svg>
