<svg width="830" height="459" viewBox="0 0 830 459" fill="none" xmlns="http://www.w3.org/2000/svg">
<circle cx="35.5167" cy="89.5165" r="20.5" transform="rotate(-120 35.5167 89.5165)" stroke="#EFFAFF" stroke-width="11"/>
<path d="M592.985 413.971L624.045 424.848L599.096 446.308L592.985 413.971Z" stroke="#EEF3FE" stroke-width="7"/>
<circle cx="638.853" cy="19.9706" r="2.85294" fill="#E2E2E2"/>
<circle cx="655.971" cy="19.9706" r="2.85294" fill="#E2E2E2"/>
<circle cx="638.853" cy="2.85294" r="2.85294" fill="#E2E2E2"/>
<circle cx="655.971" cy="2.85294" r="2.85294" fill="#E2E2E2"/>
<circle cx="673.088" cy="19.9706" r="2.85294" fill="#E2E2E2"/>
<circle cx="690.206" cy="19.9706" r="2.85294" fill="#E2E2E2"/>
<circle cx="673.088" cy="2.85294" r="2.85294" fill="#E2E2E2"/>
<circle cx="690.206" cy="2.85294" r="2.85294" fill="#E2E2E2"/>
<circle cx="707.324" cy="19.9706" r="2.85294" fill="#E2E2E2"/>
<circle cx="724.441" cy="19.9706" r="2.85294" fill="#E2E2E2"/>
<circle cx="707.324" cy="2.85294" r="2.85294" fill="#E2E2E2"/>
<circle cx="724.441" cy="2.85294" r="2.85294" fill="#E2E2E2"/>
<circle cx="741.559" cy="19.9706" r="2.85294" fill="#E2E2E2"/>
<circle cx="758.677" cy="19.9706" r="2.85294" fill="#E2E2E2"/>
<circle cx="741.559" cy="2.85294" r="2.85294" fill="#E2E2E2"/>
<circle cx="758.677" cy="2.85294" r="2.85294" fill="#E2E2E2"/>
<circle cx="775.794" cy="19.9706" r="2.85294" fill="#E2E2E2"/>
<circle cx="792.912" cy="19.9706" r="2.85294" fill="#E2E2E2"/>
<circle cx="775.794" cy="2.85294" r="2.85294" fill="#E2E2E2"/>
<circle cx="792.912" cy="2.85294" r="2.85294" fill="#E2E2E2"/>
<circle cx="810.029" cy="19.9706" r="2.85294" fill="#E2E2E2"/>
<circle cx="827.147" cy="19.9706" r="2.85294" fill="#E2E2E2"/>
<circle cx="810.029" cy="2.85294" r="2.85294" fill="#E2E2E2"/>
<circle cx="827.147" cy="2.85294" r="2.85294" fill="#E2E2E2"/>
<circle cx="638.853" cy="54.206" r="2.85294" fill="#E2E2E2"/>
<circle cx="655.971" cy="54.206" r="2.85294" fill="#E2E2E2"/>
<circle cx="638.853" cy="37.0885" r="2.85294" fill="#E2E2E2"/>
<circle cx="655.971" cy="37.0883" r="2.85294" fill="#E2E2E2"/>
<circle cx="673.088" cy="54.206" r="2.85294" fill="#E2E2E2"/>
<circle cx="690.206" cy="54.206" r="2.85294" fill="#E2E2E2"/>
<circle cx="673.088" cy="37.0885" r="2.85294" fill="#E2E2E2"/>
<circle cx="690.206" cy="37.0883" r="2.85294" fill="#E2E2E2"/>
<circle cx="707.324" cy="54.206" r="2.85294" fill="#E2E2E2"/>
<circle cx="724.441" cy="54.206" r="2.85294" fill="#E2E2E2"/>
<circle cx="707.324" cy="37.0885" r="2.85294" fill="#E2E2E2"/>
<circle cx="724.441" cy="37.0883" r="2.85294" fill="#E2E2E2"/>
<circle cx="741.559" cy="54.206" r="2.85294" fill="#E2E2E2"/>
<circle cx="758.677" cy="54.206" r="2.85294" fill="#E2E2E2"/>
<circle cx="741.559" cy="37.0885" r="2.85294" fill="#E2E2E2"/>
<circle cx="758.677" cy="37.0883" r="2.85294" fill="#E2E2E2"/>
<circle cx="775.794" cy="54.206" r="2.85294" fill="#E2E2E2"/>
<circle cx="792.912" cy="54.206" r="2.85294" fill="#E2E2E2"/>
<circle cx="775.794" cy="37.0885" r="2.85294" fill="#E2E2E2"/>
<circle cx="792.912" cy="37.0883" r="2.85294" fill="#E2E2E2"/>
<circle cx="810.029" cy="54.206" r="2.85294" fill="#E2E2E2"/>
<circle cx="827.147" cy="54.206" r="2.85294" fill="#E2E2E2"/>
<circle cx="810.029" cy="37.0885" r="2.85294" fill="#E2E2E2"/>
<circle cx="827.147" cy="37.0883" r="2.85294" fill="#E2E2E2"/>
<circle cx="638.853" cy="88.4411" r="2.85294" fill="#E2E2E2"/>
<circle cx="655.971" cy="88.4411" r="2.85294" fill="#E2E2E2"/>
<circle cx="638.853" cy="71.3234" r="2.85294" fill="#E2E2E2"/>
<circle cx="655.971" cy="71.3234" r="2.85294" fill="#E2E2E2"/>
<circle cx="673.088" cy="88.4411" r="2.85294" fill="#E2E2E2"/>
<circle cx="690.206" cy="88.4411" r="2.85294" fill="#E2E2E2"/>
<circle cx="673.088" cy="71.3234" r="2.85294" fill="#E2E2E2"/>
<circle cx="690.206" cy="71.3234" r="2.85294" fill="#E2E2E2"/>
<circle cx="707.324" cy="88.4411" r="2.85294" fill="#E2E2E2"/>
<circle cx="724.441" cy="88.4411" r="2.85294" fill="#E2E2E2"/>
<circle cx="707.324" cy="71.3234" r="2.85294" fill="#E2E2E2"/>
<circle cx="724.441" cy="71.3234" r="2.85294" fill="#E2E2E2"/>
<circle cx="741.559" cy="88.4411" r="2.85294" fill="#E2E2E2"/>
<circle cx="758.677" cy="88.4411" r="2.85294" fill="#E2E2E2"/>
<circle cx="741.559" cy="71.3234" r="2.85294" fill="#E2E2E2"/>
<circle cx="758.677" cy="71.3234" r="2.85294" fill="#E2E2E2"/>
<circle cx="775.794" cy="88.4411" r="2.85294" fill="#E2E2E2"/>
<circle cx="792.912" cy="88.4411" r="2.85294" fill="#E2E2E2"/>
<circle cx="775.794" cy="71.3234" r="2.85294" fill="#E2E2E2"/>
<circle cx="792.912" cy="71.3234" r="2.85294" fill="#E2E2E2"/>
<circle cx="810.029" cy="88.4411" r="2.85294" fill="#E2E2E2"/>
<circle cx="827.147" cy="88.4411" r="2.85294" fill="#E2E2E2"/>
<circle cx="810.029" cy="71.3234" r="2.85294" fill="#E2E2E2"/>
<circle cx="827.147" cy="71.3234" r="2.85294" fill="#E2E2E2"/>
<circle cx="638.853" cy="122.676" r="2.85294" fill="#E2E2E2"/>
<circle cx="655.971" cy="122.676" r="2.85294" fill="#E2E2E2"/>
<circle cx="638.853" cy="105.559" r="2.85294" fill="#E2E2E2"/>
<circle cx="655.971" cy="105.559" r="2.85294" fill="#E2E2E2"/>
<circle cx="673.088" cy="122.676" r="2.85294" fill="#E2E2E2"/>
<circle cx="690.206" cy="122.676" r="2.85294" fill="#E2E2E2"/>
<circle cx="673.088" cy="105.559" r="2.85294" fill="#E2E2E2"/>
<circle cx="690.206" cy="105.559" r="2.85294" fill="#E2E2E2"/>
<circle cx="707.324" cy="122.676" r="2.85294" fill="#E2E2E2"/>
<circle cx="724.441" cy="122.676" r="2.85294" fill="#E2E2E2"/>
<circle cx="707.324" cy="105.559" r="2.85294" fill="#E2E2E2"/>
<circle cx="724.441" cy="105.559" r="2.85294" fill="#E2E2E2"/>
<circle cx="741.559" cy="122.676" r="2.85294" fill="#E2E2E2"/>
<circle cx="758.677" cy="122.676" r="2.85294" fill="#E2E2E2"/>
<circle cx="741.559" cy="105.559" r="2.85294" fill="#E2E2E2"/>
<circle cx="758.677" cy="105.559" r="2.85294" fill="#E2E2E2"/>
<circle cx="775.794" cy="122.676" r="2.85294" fill="#E2E2E2"/>
<circle cx="792.912" cy="122.676" r="2.85294" fill="#E2E2E2"/>
<circle cx="775.794" cy="105.559" r="2.85294" fill="#E2E2E2"/>
<circle cx="792.912" cy="105.559" r="2.85294" fill="#E2E2E2"/>
<circle cx="810.029" cy="122.676" r="2.85294" fill="#E2E2E2"/>
<circle cx="827.147" cy="122.676" r="2.85294" fill="#E2E2E2"/>
<circle cx="810.029" cy="105.559" r="2.85294" fill="#E2E2E2"/>
<circle cx="827.147" cy="105.559" r="2.85294" fill="#E2E2E2"/>
<circle cx="638.853" cy="156.912" r="2.85294" fill="#E2E2E2"/>
<circle cx="655.971" cy="156.912" r="2.85294" fill="#E2E2E2"/>
<circle cx="638.853" cy="139.794" r="2.85294" fill="#E2E2E2"/>
<circle cx="655.971" cy="139.794" r="2.85294" fill="#E2E2E2"/>
<circle cx="673.088" cy="156.912" r="2.85294" fill="#E2E2E2"/>
<circle cx="690.206" cy="156.912" r="2.85294" fill="#E2E2E2"/>
<circle cx="673.088" cy="139.794" r="2.85294" fill="#E2E2E2"/>
<circle cx="690.206" cy="139.794" r="2.85294" fill="#E2E2E2"/>
<circle cx="707.324" cy="156.912" r="2.85294" fill="#E2E2E2"/>
<circle cx="724.441" cy="156.912" r="2.85294" fill="#E2E2E2"/>
<circle cx="707.324" cy="139.794" r="2.85294" fill="#E2E2E2"/>
<circle cx="724.441" cy="139.794" r="2.85294" fill="#E2E2E2"/>
<circle cx="741.559" cy="156.912" r="2.85294" fill="#E2E2E2"/>
<circle cx="758.677" cy="156.912" r="2.85294" fill="#E2E2E2"/>
<circle cx="741.559" cy="139.794" r="2.85294" fill="#E2E2E2"/>
<circle cx="758.677" cy="139.794" r="2.85294" fill="#E2E2E2"/>
<circle cx="775.794" cy="156.912" r="2.85294" fill="#E2E2E2"/>
<circle cx="792.912" cy="156.912" r="2.85294" fill="#E2E2E2"/>
<circle cx="775.794" cy="139.794" r="2.85294" fill="#E2E2E2"/>
<circle cx="792.912" cy="139.794" r="2.85294" fill="#E2E2E2"/>
<circle cx="810.029" cy="156.912" r="2.85294" fill="#E2E2E2"/>
<circle cx="827.147" cy="156.912" r="2.85294" fill="#E2E2E2"/>
<circle cx="810.029" cy="139.794" r="2.85294" fill="#E2E2E2"/>
<circle cx="827.147" cy="139.794" r="2.85294" fill="#E2E2E2"/>
<circle cx="638.853" cy="191.147" r="2.85294" fill="#E2E2E2"/>
<circle cx="655.971" cy="191.147" r="2.85294" fill="#E2E2E2"/>
<circle cx="638.853" cy="174.03" r="2.85294" fill="#E2E2E2"/>
<circle cx="655.971" cy="174.029" r="2.85294" fill="#E2E2E2"/>
<circle cx="673.088" cy="191.147" r="2.85294" fill="#E2E2E2"/>
<circle cx="690.206" cy="191.147" r="2.85294" fill="#E2E2E2"/>
<circle cx="673.088" cy="174.03" r="2.85294" fill="#E2E2E2"/>
<circle cx="690.206" cy="174.029" r="2.85294" fill="#E2E2E2"/>
<circle cx="707.324" cy="191.147" r="2.85294" fill="#E2E2E2"/>
<circle cx="724.441" cy="191.147" r="2.85294" fill="#E2E2E2"/>
<circle cx="707.324" cy="174.03" r="2.85294" fill="#E2E2E2"/>
<circle cx="724.441" cy="174.029" r="2.85294" fill="#E2E2E2"/>
<circle cx="741.559" cy="191.147" r="2.85294" fill="#E2E2E2"/>
<circle cx="758.677" cy="191.147" r="2.85294" fill="#E2E2E2"/>
<circle cx="741.559" cy="174.03" r="2.85294" fill="#E2E2E2"/>
<circle cx="758.677" cy="174.029" r="2.85294" fill="#E2E2E2"/>
<circle cx="775.794" cy="191.147" r="2.85294" fill="#E2E2E2"/>
<circle cx="792.912" cy="191.147" r="2.85294" fill="#E2E2E2"/>
<circle cx="775.794" cy="174.03" r="2.85294" fill="#E2E2E2"/>
<circle cx="792.912" cy="174.029" r="2.85294" fill="#E2E2E2"/>
<circle cx="810.029" cy="191.147" r="2.85294" fill="#E2E2E2"/>
<circle cx="827.147" cy="191.147" r="2.85294" fill="#E2E2E2"/>
<circle cx="810.029" cy="174.03" r="2.85294" fill="#E2E2E2"/>
<circle cx="827.147" cy="174.029" r="2.85294" fill="#E2E2E2"/>
</svg>
