<svg width="1440" height="640" viewBox="0 0 1440 640" fill="none" xmlns="http://www.w3.org/2000/svg">
<rect width="1440" height="640" fill="#F8FBFC"/>
<circle cx="546" cy="136" r="20.5" stroke="#E1F3FC" stroke-width="11"/>
<ellipse cx="1051.83" cy="420.959" rx="4.20255" ry="4.21411" transform="rotate(-45 1051.83 420.959)" fill="#E1F3FC"/>
<ellipse cx="1069.66" cy="403.13" rx="4.20255" ry="4.21411" transform="rotate(-45 1069.66 403.13)" fill="#E1F3FC"/>
<ellipse cx="1033.95" cy="403.08" rx="4.20255" ry="4.21411" transform="rotate(-45 1033.95 403.08)" fill="#E1F3FC"/>
<ellipse cx="1051.78" cy="385.251" rx="4.20255" ry="4.21411" transform="rotate(-45 1051.78 385.251)" fill="#E1F3FC"/>
<ellipse cx="1087.49" cy="385.299" rx="4.20255" ry="4.21411" transform="rotate(-45 1087.49 385.299)" fill="#E1F3FC"/>
<ellipse cx="1105.32" cy="367.47" rx="4.20255" ry="4.21411" transform="rotate(-45 1105.32 367.47)" fill="#E1F3FC"/>
<ellipse cx="1069.61" cy="367.421" rx="4.20255" ry="4.21411" transform="rotate(-45 1069.61 367.421)" fill="#E1F3FC"/>
<ellipse cx="1087.44" cy="349.591" rx="4.20255" ry="4.21411" transform="rotate(-45 1087.44 349.591)" fill="#E1F3FC"/>
<ellipse cx="1123.15" cy="349.64" rx="4.20255" ry="4.21411" transform="rotate(-45 1123.15 349.64)" fill="#E1F3FC"/>
<ellipse cx="1140.98" cy="331.81" rx="4.20255" ry="4.21411" transform="rotate(-45 1140.98 331.81)" fill="#E1F3FC"/>
<ellipse cx="1105.27" cy="331.761" rx="4.20255" ry="4.21411" transform="rotate(-45 1105.27 331.761)" fill="#E1F3FC"/>
<ellipse cx="1123.1" cy="313.931" rx="4.20255" ry="4.21411" transform="rotate(-45 1123.1 313.931)" fill="#E1F3FC"/>
<ellipse cx="1158.81" cy="313.98" rx="4.20255" ry="4.21411" transform="rotate(-45 1158.81 313.98)" fill="#E1F3FC"/>
<ellipse cx="1176.64" cy="296.15" rx="4.20255" ry="4.21411" transform="rotate(-45 1176.64 296.15)" fill="#E1F3FC"/>
<ellipse cx="1140.93" cy="296.101" rx="4.20255" ry="4.21411" transform="rotate(-45 1140.93 296.101)" fill="#E1F3FC"/>
<ellipse cx="1158.76" cy="278.271" rx="4.20255" ry="4.21411" transform="rotate(-45 1158.76 278.271)" fill="#E1F3FC"/>
<ellipse cx="1194.47" cy="278.32" rx="4.20255" ry="4.21411" transform="rotate(-45 1194.47 278.32)" fill="#E1F3FC"/>
<ellipse cx="1212.3" cy="260.49" rx="4.20255" ry="4.21411" transform="rotate(-45 1212.3 260.49)" fill="#E1F3FC"/>
<ellipse cx="1176.59" cy="260.44" rx="4.20255" ry="4.21411" transform="rotate(-45 1176.59 260.44)" fill="#E1F3FC"/>
<ellipse cx="1194.42" cy="242.611" rx="4.20255" ry="4.21411" transform="rotate(-45 1194.42 242.611)" fill="#E1F3FC"/>
<ellipse cx="1230.13" cy="242.661" rx="4.20255" ry="4.21411" transform="rotate(-45 1230.13 242.661)" fill="#E1F3FC"/>
<ellipse cx="1247.96" cy="224.831" rx="4.20255" ry="4.21411" transform="rotate(-45 1247.96 224.831)" fill="#E1F3FC"/>
<ellipse cx="1212.25" cy="224.782" rx="4.20255" ry="4.21411" transform="rotate(-45 1212.25 224.782)" fill="#E1F3FC"/>
<ellipse cx="1230.08" cy="206.952" rx="4.20255" ry="4.21411" transform="rotate(-45 1230.08 206.952)" fill="#E1F3FC"/>
<ellipse cx="1087.59" cy="456.717" rx="4.20255" ry="4.21411" transform="rotate(-45 1087.59 456.717)" fill="#E1F3FC"/>
<ellipse cx="1105.42" cy="438.888" rx="4.20255" ry="4.21411" transform="rotate(-45 1105.42 438.888)" fill="#E1F3FC"/>
<ellipse cx="1069.71" cy="438.839" rx="4.20255" ry="4.21411" transform="rotate(-45 1069.71 438.839)" fill="#E1F3FC"/>
<ellipse cx="1087.54" cy="421.009" rx="4.20255" ry="4.21411" transform="rotate(-45 1087.54 421.009)" fill="#E1F3FC"/>
<ellipse cx="1123.25" cy="421.058" rx="4.20255" ry="4.21411" transform="rotate(-45 1123.25 421.058)" fill="#E1F3FC"/>
<ellipse cx="1141.08" cy="403.228" rx="4.20255" ry="4.21411" transform="rotate(-45 1141.08 403.228)" fill="#E1F3FC"/>
<ellipse cx="1105.37" cy="403.179" rx="4.20255" ry="4.21411" transform="rotate(-45 1105.37 403.179)" fill="#E1F3FC"/>
<ellipse cx="1123.2" cy="385.349" rx="4.20255" ry="4.21411" transform="rotate(-45 1123.2 385.349)" fill="#E1F3FC"/>
<ellipse cx="1158.91" cy="385.398" rx="4.20255" ry="4.21411" transform="rotate(-45 1158.91 385.398)" fill="#E1F3FC"/>
<ellipse cx="1176.74" cy="367.568" rx="4.20255" ry="4.21411" transform="rotate(-45 1176.74 367.568)" fill="#E1F3FC"/>
<ellipse cx="1141.03" cy="367.519" rx="4.20255" ry="4.21411" transform="rotate(-45 1141.03 367.519)" fill="#E1F3FC"/>
<ellipse cx="1158.86" cy="349.689" rx="4.20255" ry="4.21411" transform="rotate(-45 1158.86 349.689)" fill="#E1F3FC"/>
<ellipse cx="1194.57" cy="349.738" rx="4.20255" ry="4.21411" transform="rotate(-45 1194.57 349.738)" fill="#E1F3FC"/>
<ellipse cx="1212.4" cy="331.908" rx="4.20255" ry="4.21411" transform="rotate(-45 1212.4 331.908)" fill="#E1F3FC"/>
<ellipse cx="1176.69" cy="331.859" rx="4.20255" ry="4.21411" transform="rotate(-45 1176.69 331.859)" fill="#E1F3FC"/>
<ellipse cx="1194.52" cy="314.029" rx="4.20255" ry="4.21411" transform="rotate(-45 1194.52 314.029)" fill="#E1F3FC"/>
<ellipse cx="1230.23" cy="314.078" rx="4.20255" ry="4.21411" transform="rotate(-45 1230.23 314.078)" fill="#E1F3FC"/>
<ellipse cx="1248.06" cy="296.248" rx="4.20255" ry="4.21411" transform="rotate(-45 1248.06 296.248)" fill="#E1F3FC"/>
<ellipse cx="1212.35" cy="296.199" rx="4.20255" ry="4.21411" transform="rotate(-45 1212.35 296.199)" fill="#E1F3FC"/>
<ellipse cx="1230.18" cy="278.369" rx="4.20255" ry="4.21411" transform="rotate(-45 1230.18 278.369)" fill="#E1F3FC"/>
<ellipse cx="1265.89" cy="278.419" rx="4.20255" ry="4.21411" transform="rotate(-45 1265.89 278.419)" fill="#E1F3FC"/>
<ellipse cx="1283.72" cy="260.588" rx="4.20255" ry="4.21411" transform="rotate(-45 1283.72 260.588)" fill="#E1F3FC"/>
<ellipse cx="1248.01" cy="260.539" rx="4.20255" ry="4.21411" transform="rotate(-45 1248.01 260.539)" fill="#E1F3FC"/>
<ellipse cx="1265.84" cy="242.71" rx="4.20255" ry="4.21411" transform="rotate(-45 1265.84 242.71)" fill="#E1F3FC"/>
<ellipse cx="1123.35" cy="492.476" rx="4.20255" ry="4.21411" transform="rotate(-45 1123.35 492.476)" fill="#E1F3FC"/>
<ellipse cx="1141.18" cy="474.646" rx="4.20255" ry="4.21411" transform="rotate(-45 1141.18 474.646)" fill="#E1F3FC"/>
<ellipse cx="1105.47" cy="474.597" rx="4.20255" ry="4.21411" transform="rotate(-45 1105.47 474.597)" fill="#E1F3FC"/>
<ellipse cx="1123.3" cy="456.767" rx="4.20255" ry="4.21411" transform="rotate(-45 1123.3 456.767)" fill="#E1F3FC"/>
<ellipse cx="1159.01" cy="456.816" rx="4.20255" ry="4.21411" transform="rotate(-45 1159.01 456.816)" fill="#E1F3FC"/>
<ellipse cx="1176.84" cy="438.986" rx="4.20255" ry="4.21411" transform="rotate(-45 1176.84 438.986)" fill="#E1F3FC"/>
<ellipse cx="1141.13" cy="438.937" rx="4.20255" ry="4.21411" transform="rotate(-45 1141.13 438.937)" fill="#E1F3FC"/>
<ellipse cx="1158.96" cy="421.107" rx="4.20255" ry="4.21411" transform="rotate(-45 1158.96 421.107)" fill="#E1F3FC"/>
<ellipse cx="1194.67" cy="421.156" rx="4.20255" ry="4.21411" transform="rotate(-45 1194.67 421.156)" fill="#E1F3FC"/>
<ellipse cx="1212.5" cy="403.326" rx="4.20255" ry="4.21411" transform="rotate(-45 1212.5 403.326)" fill="#E1F3FC"/>
<ellipse cx="1176.79" cy="403.277" rx="4.20255" ry="4.21411" transform="rotate(-45 1176.79 403.277)" fill="#E1F3FC"/>
<ellipse cx="1194.62" cy="385.447" rx="4.20255" ry="4.21411" transform="rotate(-45 1194.62 385.447)" fill="#E1F3FC"/>
<ellipse cx="1230.33" cy="385.496" rx="4.20255" ry="4.21411" transform="rotate(-45 1230.33 385.496)" fill="#E1F3FC"/>
<ellipse cx="1248.16" cy="367.666" rx="4.20255" ry="4.21411" transform="rotate(-45 1248.16 367.666)" fill="#E1F3FC"/>
<ellipse cx="1212.45" cy="367.617" rx="4.20255" ry="4.21411" transform="rotate(-45 1212.45 367.617)" fill="#E1F3FC"/>
<ellipse cx="1230.28" cy="349.787" rx="4.20255" ry="4.21411" transform="rotate(-45 1230.28 349.787)" fill="#E1F3FC"/>
<ellipse cx="1265.99" cy="349.836" rx="4.20255" ry="4.21411" transform="rotate(-45 1265.99 349.836)" fill="#E1F3FC"/>
<ellipse cx="1283.82" cy="332.006" rx="4.20255" ry="4.21411" transform="rotate(-45 1283.82 332.006)" fill="#E1F3FC"/>
<ellipse cx="1248.11" cy="331.957" rx="4.20255" ry="4.21411" transform="rotate(-45 1248.11 331.957)" fill="#E1F3FC"/>
<ellipse cx="1265.94" cy="314.128" rx="4.20255" ry="4.21411" transform="rotate(-45 1265.94 314.128)" fill="#E1F3FC"/>
<ellipse cx="1301.65" cy="314.176" rx="4.20255" ry="4.21411" transform="rotate(-45 1301.65 314.176)" fill="#E1F3FC"/>
<ellipse cx="1319.48" cy="296.346" rx="4.20255" ry="4.21411" transform="rotate(-45 1319.48 296.346)" fill="#E1F3FC"/>
<ellipse cx="1283.77" cy="296.297" rx="4.20255" ry="4.21411" transform="rotate(-45 1283.77 296.297)" fill="#E1F3FC"/>
<ellipse cx="1301.6" cy="278.467" rx="4.20255" ry="4.21411" transform="rotate(-45 1301.6 278.467)" fill="#E1F3FC"/>
<ellipse cx="1159.1" cy="528.234" rx="4.20255" ry="4.21411" transform="rotate(-45 1159.1 528.234)" fill="#E1F3FC"/>
<ellipse cx="1176.93" cy="510.404" rx="4.20255" ry="4.21411" transform="rotate(-45 1176.93 510.404)" fill="#E1F3FC"/>
<ellipse cx="1141.23" cy="510.355" rx="4.20255" ry="4.21411" transform="rotate(-45 1141.23 510.355)" fill="#E1F3FC"/>
<ellipse cx="1159.06" cy="492.525" rx="4.20255" ry="4.21411" transform="rotate(-45 1159.06 492.525)" fill="#E1F3FC"/>
<ellipse cx="1194.76" cy="492.573" rx="4.20255" ry="4.21411" transform="rotate(-45 1194.76 492.573)" fill="#E1F3FC"/>
<ellipse cx="1212.59" cy="474.744" rx="4.20255" ry="4.21411" transform="rotate(-45 1212.59 474.744)" fill="#E1F3FC"/>
<ellipse cx="1176.89" cy="474.694" rx="4.20255" ry="4.21411" transform="rotate(-45 1176.89 474.694)" fill="#E1F3FC"/>
<ellipse cx="1194.71" cy="456.865" rx="4.20255" ry="4.21411" transform="rotate(-45 1194.71 456.865)" fill="#E1F3FC"/>
<ellipse cx="1230.42" cy="456.914" rx="4.20255" ry="4.21411" transform="rotate(-45 1230.42 456.914)" fill="#E1F3FC"/>
<ellipse cx="1248.25" cy="439.084" rx="4.20255" ry="4.21411" transform="rotate(-45 1248.25 439.084)" fill="#E1F3FC"/>
<ellipse cx="1212.55" cy="439.035" rx="4.20255" ry="4.21411" transform="rotate(-45 1212.55 439.035)" fill="#E1F3FC"/>
<ellipse cx="1230.37" cy="421.205" rx="4.20255" ry="4.21411" transform="rotate(-45 1230.37 421.205)" fill="#E1F3FC"/>
<ellipse cx="1266.08" cy="421.254" rx="4.20255" ry="4.21411" transform="rotate(-45 1266.08 421.254)" fill="#E1F3FC"/>
<ellipse cx="1283.91" cy="403.424" rx="4.20255" ry="4.21411" transform="rotate(-45 1283.91 403.424)" fill="#E1F3FC"/>
<ellipse cx="1248.2" cy="403.375" rx="4.20255" ry="4.21411" transform="rotate(-45 1248.2 403.375)" fill="#E1F3FC"/>
<ellipse cx="1266.03" cy="385.545" rx="4.20255" ry="4.21411" transform="rotate(-45 1266.03 385.545)" fill="#E1F3FC"/>
<ellipse cx="1301.74" cy="385.594" rx="4.20255" ry="4.21411" transform="rotate(-45 1301.74 385.594)" fill="#E1F3FC"/>
<ellipse cx="1319.57" cy="367.764" rx="4.20255" ry="4.21411" transform="rotate(-45 1319.57 367.764)" fill="#E1F3FC"/>
<ellipse cx="1283.86" cy="367.715" rx="4.20255" ry="4.21411" transform="rotate(-45 1283.86 367.715)" fill="#E1F3FC"/>
<ellipse cx="1301.69" cy="349.885" rx="4.20255" ry="4.21411" transform="rotate(-45 1301.69 349.885)" fill="#E1F3FC"/>
<ellipse cx="1337.4" cy="349.934" rx="4.20255" ry="4.21411" transform="rotate(-45 1337.4 349.934)" fill="#E1F3FC"/>
<ellipse cx="1355.23" cy="332.104" rx="4.20255" ry="4.21411" transform="rotate(-45 1355.23 332.104)" fill="#E1F3FC"/>
<ellipse cx="1319.52" cy="332.055" rx="4.20255" ry="4.21411" transform="rotate(-45 1319.52 332.055)" fill="#E1F3FC"/>
<ellipse cx="1337.35" cy="314.225" rx="4.20255" ry="4.21411" transform="rotate(-45 1337.35 314.225)" fill="#E1F3FC"/>
<ellipse cx="1194.86" cy="563.991" rx="4.20255" ry="4.21411" transform="rotate(-45 1194.86 563.991)" fill="#E1F3FC"/>
<ellipse cx="1212.69" cy="546.161" rx="4.20255" ry="4.21411" transform="rotate(-45 1212.69 546.161)" fill="#E1F3FC"/>
<ellipse cx="1176.98" cy="546.112" rx="4.20255" ry="4.21411" transform="rotate(-45 1176.98 546.112)" fill="#E1F3FC"/>
<ellipse cx="1194.81" cy="528.282" rx="4.20255" ry="4.21411" transform="rotate(-45 1194.81 528.282)" fill="#E1F3FC"/>
<ellipse cx="1230.52" cy="528.331" rx="4.20255" ry="4.21411" transform="rotate(-45 1230.52 528.331)" fill="#E1F3FC"/>
<ellipse cx="1248.35" cy="510.502" rx="4.20255" ry="4.21411" transform="rotate(-45 1248.35 510.502)" fill="#E1F3FC"/>
<ellipse cx="1212.64" cy="510.453" rx="4.20255" ry="4.21411" transform="rotate(-45 1212.64 510.453)" fill="#E1F3FC"/>
<ellipse cx="1230.47" cy="492.623" rx="4.20255" ry="4.21411" transform="rotate(-45 1230.47 492.623)" fill="#E1F3FC"/>
<ellipse cx="1266.18" cy="492.672" rx="4.20255" ry="4.21411" transform="rotate(-45 1266.18 492.672)" fill="#E1F3FC"/>
<ellipse cx="1284.01" cy="474.842" rx="4.20255" ry="4.21411" transform="rotate(-45 1284.01 474.842)" fill="#E1F3FC"/>
<ellipse cx="1248.3" cy="474.793" rx="4.20255" ry="4.21411" transform="rotate(-45 1248.3 474.793)" fill="#E1F3FC"/>
<ellipse cx="1266.13" cy="456.963" rx="4.20255" ry="4.21411" transform="rotate(-45 1266.13 456.963)" fill="#E1F3FC"/>
<ellipse cx="1301.84" cy="457.012" rx="4.20255" ry="4.21411" transform="rotate(-45 1301.84 457.012)" fill="#E1F3FC"/>
<ellipse cx="1319.67" cy="439.182" rx="4.20255" ry="4.21411" transform="rotate(-45 1319.67 439.182)" fill="#E1F3FC"/>
<ellipse cx="1283.96" cy="439.133" rx="4.20255" ry="4.21411" transform="rotate(-45 1283.96 439.133)" fill="#E1F3FC"/>
<ellipse cx="1301.79" cy="421.303" rx="4.20255" ry="4.21411" transform="rotate(-45 1301.79 421.303)" fill="#E1F3FC"/>
<ellipse cx="1337.5" cy="421.352" rx="4.20255" ry="4.21411" transform="rotate(-45 1337.5 421.352)" fill="#E1F3FC"/>
<ellipse cx="1355.33" cy="403.522" rx="4.20255" ry="4.21411" transform="rotate(-45 1355.33 403.522)" fill="#E1F3FC"/>
<ellipse cx="1319.62" cy="403.473" rx="4.20255" ry="4.21411" transform="rotate(-45 1319.62 403.473)" fill="#E1F3FC"/>
<ellipse cx="1337.45" cy="385.643" rx="4.20255" ry="4.21411" transform="rotate(-45 1337.45 385.643)" fill="#E1F3FC"/>
<ellipse cx="1373.16" cy="385.692" rx="4.20255" ry="4.21411" transform="rotate(-45 1373.16 385.692)" fill="#E1F3FC"/>
<ellipse cx="1390.99" cy="367.862" rx="4.20255" ry="4.21411" transform="rotate(-45 1390.99 367.862)" fill="#E1F3FC"/>
<ellipse cx="1355.28" cy="367.813" rx="4.20255" ry="4.21411" transform="rotate(-45 1355.28 367.813)" fill="#E1F3FC"/>
<ellipse cx="1373.11" cy="349.983" rx="4.20255" ry="4.21411" transform="rotate(-45 1373.11 349.983)" fill="#E1F3FC"/>
<ellipse cx="1230.62" cy="599.749" rx="4.20255" ry="4.21411" transform="rotate(-45 1230.62 599.749)" fill="#E1F3FC"/>
<ellipse cx="1248.45" cy="581.92" rx="4.20255" ry="4.21411" transform="rotate(-45 1248.45 581.92)" fill="#E1F3FC"/>
<ellipse cx="1212.74" cy="581.87" rx="4.20255" ry="4.21411" transform="rotate(-45 1212.74 581.87)" fill="#E1F3FC"/>
<ellipse cx="1230.57" cy="564.04" rx="4.20255" ry="4.21411" transform="rotate(-45 1230.57 564.04)" fill="#E1F3FC"/>
<ellipse cx="1266.28" cy="564.089" rx="4.20255" ry="4.21411" transform="rotate(-45 1266.28 564.089)" fill="#E1F3FC"/>
<ellipse cx="1284.11" cy="546.259" rx="4.20255" ry="4.21411" transform="rotate(-45 1284.11 546.259)" fill="#E1F3FC"/>
<ellipse cx="1248.4" cy="546.21" rx="4.20255" ry="4.21411" transform="rotate(-45 1248.4 546.21)" fill="#E1F3FC"/>
<ellipse cx="1266.23" cy="528.38" rx="4.20255" ry="4.21411" transform="rotate(-45 1266.23 528.38)" fill="#E1F3FC"/>
<ellipse cx="1301.94" cy="528.43" rx="4.20255" ry="4.21411" transform="rotate(-45 1301.94 528.43)" fill="#E1F3FC"/>
<ellipse cx="1319.77" cy="510.6" rx="4.20255" ry="4.21411" transform="rotate(-45 1319.77 510.6)" fill="#E1F3FC"/>
<ellipse cx="1284.06" cy="510.551" rx="4.20255" ry="4.21411" transform="rotate(-45 1284.06 510.551)" fill="#E1F3FC"/>
<ellipse cx="1301.89" cy="492.721" rx="4.20255" ry="4.21411" transform="rotate(-45 1301.89 492.721)" fill="#E1F3FC"/>
<ellipse cx="1337.6" cy="492.77" rx="4.20255" ry="4.21411" transform="rotate(-45 1337.6 492.77)" fill="#E1F3FC"/>
<ellipse cx="1355.43" cy="474.94" rx="4.20255" ry="4.21411" transform="rotate(-45 1355.43 474.94)" fill="#E1F3FC"/>
<ellipse cx="1319.72" cy="474.891" rx="4.20255" ry="4.21411" transform="rotate(-45 1319.72 474.891)" fill="#E1F3FC"/>
<ellipse cx="1337.55" cy="457.061" rx="4.20255" ry="4.21411" transform="rotate(-45 1337.55 457.061)" fill="#E1F3FC"/>
<ellipse cx="1373.26" cy="457.11" rx="4.20255" ry="4.21411" transform="rotate(-45 1373.26 457.11)" fill="#E1F3FC"/>
<ellipse cx="1391.09" cy="439.28" rx="4.20255" ry="4.21411" transform="rotate(-45 1391.09 439.28)" fill="#E1F3FC"/>
<ellipse cx="1355.38" cy="439.231" rx="4.20255" ry="4.21411" transform="rotate(-45 1355.38 439.231)" fill="#E1F3FC"/>
<ellipse cx="1373.21" cy="421.401" rx="4.20255" ry="4.21411" transform="rotate(-45 1373.21 421.401)" fill="#E1F3FC"/>
<ellipse cx="1408.92" cy="421.45" rx="4.20255" ry="4.21411" transform="rotate(-45 1408.92 421.45)" fill="#E1F3FC"/>
<ellipse cx="1426.75" cy="403.62" rx="4.20255" ry="4.21411" transform="rotate(-45 1426.75 403.62)" fill="#E1F3FC"/>
<ellipse cx="1391.04" cy="403.571" rx="4.20255" ry="4.21411" transform="rotate(-45 1391.04 403.571)" fill="#E1F3FC"/>
<ellipse cx="1408.87" cy="385.741" rx="4.20255" ry="4.21411" transform="rotate(-45 1408.87 385.741)" fill="#E1F3FC"/>
<path d="M824.985 488.971L856.045 499.848L831.096 521.308L824.985 488.971Z" stroke="#CDDAF8" stroke-width="7"/>
</svg>
