<svg width="1440" height="662" viewBox="0 0 1440 662" fill="none" xmlns="http://www.w3.org/2000/svg">
<rect width="1440" height="662" fill="#F5FCFF"/>
<circle cx="100" cy="154" r="47" fill="#F8E6E5"/>
<circle cx="461" cy="116" r="20.5" stroke="#E1F3FC" stroke-width="11"/>
<circle cx="753.368" cy="85.5735" r="2.36765" fill="#E2E2E2"/>
<circle cx="767.574" cy="85.5735" r="2.36765" fill="#E2E2E2"/>
<circle cx="753.368" cy="71.3676" r="2.36765" fill="#E2E2E2"/>
<circle cx="767.574" cy="71.3676" r="2.36765" fill="#E2E2E2"/>
<circle cx="781.779" cy="85.5735" r="2.36765" fill="#E2E2E2"/>
<circle cx="795.985" cy="85.5735" r="2.36765" fill="#E2E2E2"/>
<circle cx="781.779" cy="71.3676" r="2.36765" fill="#E2E2E2"/>
<circle cx="795.985" cy="71.3676" r="2.36765" fill="#E2E2E2"/>
<circle cx="810.191" cy="85.5735" r="2.36765" fill="#E2E2E2"/>
<circle cx="824.397" cy="85.5735" r="2.36765" fill="#E2E2E2"/>
<circle cx="810.191" cy="71.3676" r="2.36765" fill="#E2E2E2"/>
<circle cx="824.397" cy="71.3676" r="2.36765" fill="#E2E2E2"/>
<circle cx="838.603" cy="85.5735" r="2.36765" fill="#E2E2E2"/>
<circle cx="852.809" cy="85.5735" r="2.36765" fill="#E2E2E2"/>
<circle cx="838.603" cy="71.3676" r="2.36765" fill="#E2E2E2"/>
<circle cx="852.809" cy="71.3676" r="2.36765" fill="#E2E2E2"/>
<circle cx="867.015" cy="85.5735" r="2.36765" fill="#E2E2E2"/>
<circle cx="881.221" cy="85.5735" r="2.36765" fill="#E2E2E2"/>
<circle cx="867.015" cy="71.3676" r="2.36765" fill="#E2E2E2"/>
<circle cx="881.221" cy="71.3676" r="2.36765" fill="#E2E2E2"/>
<circle cx="895.427" cy="85.5735" r="2.36765" fill="#E2E2E2"/>
<circle cx="909.632" cy="85.5735" r="2.36765" fill="#E2E2E2"/>
<circle cx="895.427" cy="71.3676" r="2.36765" fill="#E2E2E2"/>
<circle cx="909.632" cy="71.3676" r="2.36765" fill="#E2E2E2"/>
<circle cx="753.368" cy="113.985" r="2.36765" fill="#E2E2E2"/>
<circle cx="767.574" cy="113.985" r="2.36765" fill="#E2E2E2"/>
<circle cx="753.368" cy="99.7794" r="2.36765" fill="#E2E2E2"/>
<circle cx="767.574" cy="99.7794" r="2.36765" fill="#E2E2E2"/>
<circle cx="781.779" cy="113.985" r="2.36765" fill="#E2E2E2"/>
<circle cx="795.985" cy="113.985" r="2.36765" fill="#E2E2E2"/>
<circle cx="781.779" cy="99.7794" r="2.36765" fill="#E2E2E2"/>
<circle cx="795.985" cy="99.7794" r="2.36765" fill="#E2E2E2"/>
<circle cx="810.191" cy="113.985" r="2.36765" fill="#E2E2E2"/>
<circle cx="824.397" cy="113.985" r="2.36765" fill="#E2E2E2"/>
<circle cx="810.191" cy="99.7794" r="2.36765" fill="#E2E2E2"/>
<circle cx="824.397" cy="99.7794" r="2.36765" fill="#E2E2E2"/>
<circle cx="838.603" cy="113.985" r="2.36765" fill="#E2E2E2"/>
<circle cx="852.809" cy="113.985" r="2.36765" fill="#E2E2E2"/>
<circle cx="838.603" cy="99.7794" r="2.36765" fill="#E2E2E2"/>
<circle cx="852.809" cy="99.7794" r="2.36765" fill="#E2E2E2"/>
<circle cx="867.015" cy="113.985" r="2.36765" fill="#E2E2E2"/>
<circle cx="881.221" cy="113.985" r="2.36765" fill="#E2E2E2"/>
<circle cx="867.015" cy="99.7794" r="2.36765" fill="#E2E2E2"/>
<circle cx="881.221" cy="99.7794" r="2.36765" fill="#E2E2E2"/>
<circle cx="895.427" cy="113.985" r="2.36765" fill="#E2E2E2"/>
<circle cx="909.632" cy="113.985" r="2.36765" fill="#E2E2E2"/>
<circle cx="895.427" cy="99.7794" r="2.36765" fill="#E2E2E2"/>
<circle cx="909.632" cy="99.7794" r="2.36765" fill="#E2E2E2"/>
<circle cx="753.368" cy="142.397" r="2.36765" fill="#E2E2E2"/>
<circle cx="767.574" cy="142.397" r="2.36765" fill="#E2E2E2"/>
<circle cx="753.368" cy="128.191" r="2.36765" fill="#E2E2E2"/>
<circle cx="767.574" cy="128.191" r="2.36765" fill="#E2E2E2"/>
<circle cx="781.779" cy="142.397" r="2.36765" fill="#E2E2E2"/>
<circle cx="795.985" cy="142.397" r="2.36765" fill="#E2E2E2"/>
<circle cx="781.779" cy="128.191" r="2.36765" fill="#E2E2E2"/>
<circle cx="795.985" cy="128.191" r="2.36765" fill="#E2E2E2"/>
<circle cx="810.191" cy="142.397" r="2.36765" fill="#E2E2E2"/>
<circle cx="824.397" cy="142.397" r="2.36765" fill="#E2E2E2"/>
<circle cx="810.191" cy="128.191" r="2.36765" fill="#E2E2E2"/>
<circle cx="824.397" cy="128.191" r="2.36765" fill="#E2E2E2"/>
<circle cx="838.603" cy="142.397" r="2.36765" fill="#E2E2E2"/>
<circle cx="852.809" cy="142.397" r="2.36765" fill="#E2E2E2"/>
<circle cx="838.603" cy="128.191" r="2.36765" fill="#E2E2E2"/>
<circle cx="852.809" cy="128.191" r="2.36765" fill="#E2E2E2"/>
<circle cx="867.015" cy="142.397" r="2.36765" fill="#E2E2E2"/>
<circle cx="881.221" cy="142.397" r="2.36765" fill="#E2E2E2"/>
<circle cx="867.015" cy="128.191" r="2.36765" fill="#E2E2E2"/>
<circle cx="881.221" cy="128.191" r="2.36765" fill="#E2E2E2"/>
<circle cx="895.427" cy="142.397" r="2.36765" fill="#E2E2E2"/>
<circle cx="909.632" cy="142.397" r="2.36765" fill="#E2E2E2"/>
<circle cx="895.427" cy="128.191" r="2.36765" fill="#E2E2E2"/>
<circle cx="909.632" cy="128.191" r="2.36765" fill="#E2E2E2"/>
<circle cx="753.368" cy="170.809" r="2.36765" fill="#E2E2E2"/>
<circle cx="767.574" cy="170.809" r="2.36765" fill="#E2E2E2"/>
<circle cx="753.368" cy="156.603" r="2.36765" fill="#E2E2E2"/>
<circle cx="767.574" cy="156.603" r="2.36765" fill="#E2E2E2"/>
<circle cx="781.779" cy="170.809" r="2.36765" fill="#E2E2E2"/>
<circle cx="795.985" cy="170.809" r="2.36765" fill="#E2E2E2"/>
<circle cx="781.779" cy="156.603" r="2.36765" fill="#E2E2E2"/>
<circle cx="795.985" cy="156.603" r="2.36765" fill="#E2E2E2"/>
<circle cx="810.191" cy="170.809" r="2.36765" fill="#E2E2E2"/>
<circle cx="824.397" cy="170.809" r="2.36765" fill="#E2E2E2"/>
<circle cx="810.191" cy="156.603" r="2.36765" fill="#E2E2E2"/>
<circle cx="824.397" cy="156.603" r="2.36765" fill="#E2E2E2"/>
<circle cx="838.603" cy="170.809" r="2.36765" fill="#E2E2E2"/>
<circle cx="852.809" cy="170.809" r="2.36765" fill="#E2E2E2"/>
<circle cx="838.603" cy="156.603" r="2.36765" fill="#E2E2E2"/>
<circle cx="852.809" cy="156.603" r="2.36765" fill="#E2E2E2"/>
<circle cx="867.015" cy="170.809" r="2.36765" fill="#E2E2E2"/>
<circle cx="881.221" cy="170.809" r="2.36765" fill="#E2E2E2"/>
<circle cx="867.015" cy="156.603" r="2.36765" fill="#E2E2E2"/>
<circle cx="881.221" cy="156.603" r="2.36765" fill="#E2E2E2"/>
<circle cx="895.427" cy="170.809" r="2.36765" fill="#E2E2E2"/>
<circle cx="909.632" cy="170.809" r="2.36765" fill="#E2E2E2"/>
<circle cx="895.427" cy="156.603" r="2.36765" fill="#E2E2E2"/>
<circle cx="909.632" cy="156.603" r="2.36765" fill="#E2E2E2"/>
<circle cx="753.368" cy="199.221" r="2.36765" fill="#E2E2E2"/>
<circle cx="767.574" cy="199.221" r="2.36765" fill="#E2E2E2"/>
<circle cx="753.368" cy="185.015" r="2.36765" fill="#E2E2E2"/>
<circle cx="767.574" cy="185.015" r="2.36765" fill="#E2E2E2"/>
<circle cx="781.779" cy="199.221" r="2.36765" fill="#E2E2E2"/>
<circle cx="795.985" cy="199.221" r="2.36765" fill="#E2E2E2"/>
<circle cx="781.779" cy="185.015" r="2.36765" fill="#E2E2E2"/>
<circle cx="795.985" cy="185.015" r="2.36765" fill="#E2E2E2"/>
<circle cx="810.191" cy="199.221" r="2.36765" fill="#E2E2E2"/>
<circle cx="824.397" cy="199.221" r="2.36765" fill="#E2E2E2"/>
<circle cx="810.191" cy="185.015" r="2.36765" fill="#E2E2E2"/>
<circle cx="824.397" cy="185.015" r="2.36765" fill="#E2E2E2"/>
<circle cx="838.603" cy="199.221" r="2.36765" fill="#E2E2E2"/>
<circle cx="852.809" cy="199.221" r="2.36765" fill="#E2E2E2"/>
<circle cx="838.603" cy="185.015" r="2.36765" fill="#E2E2E2"/>
<circle cx="852.809" cy="185.015" r="2.36765" fill="#E2E2E2"/>
<circle cx="867.015" cy="199.221" r="2.36765" fill="#E2E2E2"/>
<circle cx="881.221" cy="199.221" r="2.36765" fill="#E2E2E2"/>
<circle cx="867.015" cy="185.015" r="2.36765" fill="#E2E2E2"/>
<circle cx="881.221" cy="185.015" r="2.36765" fill="#E2E2E2"/>
<circle cx="895.427" cy="199.221" r="2.36765" fill="#E2E2E2"/>
<circle cx="909.632" cy="199.221" r="2.36765" fill="#E2E2E2"/>
<circle cx="895.427" cy="185.015" r="2.36765" fill="#E2E2E2"/>
<circle cx="909.632" cy="185.015" r="2.36765" fill="#E2E2E2"/>
<circle cx="753.368" cy="227.632" r="2.36765" fill="#E2E2E2"/>
<circle cx="767.574" cy="227.632" r="2.36765" fill="#E2E2E2"/>
<circle cx="753.368" cy="213.426" r="2.36765" fill="#E2E2E2"/>
<circle cx="767.574" cy="213.426" r="2.36765" fill="#E2E2E2"/>
<circle cx="781.779" cy="227.632" r="2.36765" fill="#E2E2E2"/>
<circle cx="795.985" cy="227.632" r="2.36765" fill="#E2E2E2"/>
<circle cx="781.779" cy="213.426" r="2.36765" fill="#E2E2E2"/>
<circle cx="795.985" cy="213.426" r="2.36765" fill="#E2E2E2"/>
<circle cx="810.191" cy="227.632" r="2.36765" fill="#E2E2E2"/>
<circle cx="824.397" cy="227.632" r="2.36765" fill="#E2E2E2"/>
<circle cx="810.191" cy="213.426" r="2.36765" fill="#E2E2E2"/>
<circle cx="824.397" cy="213.426" r="2.36765" fill="#E2E2E2"/>
<circle cx="838.603" cy="227.632" r="2.36765" fill="#E2E2E2"/>
<circle cx="852.809" cy="227.632" r="2.36765" fill="#E2E2E2"/>
<circle cx="838.603" cy="213.426" r="2.36765" fill="#E2E2E2"/>
<circle cx="852.809" cy="213.426" r="2.36765" fill="#E2E2E2"/>
<circle cx="867.015" cy="227.632" r="2.36765" fill="#E2E2E2"/>
<circle cx="881.221" cy="227.632" r="2.36765" fill="#E2E2E2"/>
<circle cx="867.015" cy="213.426" r="2.36765" fill="#E2E2E2"/>
<circle cx="881.221" cy="213.426" r="2.36765" fill="#E2E2E2"/>
<circle cx="895.427" cy="227.632" r="2.36765" fill="#E2E2E2"/>
<circle cx="909.632" cy="227.632" r="2.36765" fill="#E2E2E2"/>
<circle cx="895.427" cy="213.426" r="2.36765" fill="#E2E2E2"/>
<circle cx="909.632" cy="213.426" r="2.36765" fill="#E2E2E2"/>
<path d="M505.802 382.604L480.852 404.064L474.742 371.728L505.802 382.604Z" stroke="#CDDAF8" stroke-width="7"/>
</svg>
