<svg width="68" height="51" viewBox="0 0 68 51" fill="none" xmlns="http://www.w3.org/2000/svg">
<path d="M53.8333 19.9051V5.66671C53.8333 2.5415 51.2919 0 48.1666 0H5.66658C2.54137 0 0 2.54137 0 5.66671V34C0 37.1252 2.54137 39.6667 5.66671 39.6667H37.4375C39.2936 46.1975 45.2988 51 52.4167 51C55.156 51 57.8495 50.2792 60.2097 48.9138C60.8863 48.5222 61.1187 47.6562 60.7257 46.9783C60.3342 46.3004 59.4668 46.0665 58.7903 46.4623C56.8617 47.5774 54.6578 48.1667 52.4166 48.1667C45.3857 48.1667 39.6666 42.4474 39.6666 35.4167C39.6666 28.386 45.3859 22.6667 52.4166 22.6667C59.4473 22.6667 65.1666 28.386 65.1666 35.4167V36.8334C65.1666 38.3953 63.8952 39.6667 62.3333 39.6667C60.7714 39.6667 59.5 38.3953 59.5 36.8334V31.1667C59.5 30.3836 58.8664 29.75 58.0833 29.75C57.7023 29.75 57.3599 29.9042 57.1055 30.1484C55.8534 29.0327 54.2216 28.3333 52.4166 28.3333C48.5111 28.3333 45.3333 31.5111 45.3333 35.4166C45.3333 39.3221 48.5111 42.5 52.4167 42.5C54.5279 42.5 56.4051 41.5529 57.704 40.0825C58.7302 41.5404 60.4187 42.5 62.3334 42.5C65.4586 42.5 68 39.9586 68 36.8333V35.4166C68 27.3021 61.7637 20.6242 53.8333 19.9051ZM5.66671 2.83329H48.1667C48.2257 2.83329 48.2751 2.86344 48.3333 2.86702L28.0816 19.4902C27.3608 19.9441 26.3163 19.8499 25.8473 19.5622L5.50189 2.86676C5.5594 2.8633 5.60827 2.83329 5.66671 2.83329ZM51 19.9051C43.0696 20.6242 36.8333 27.3021 36.8333 35.4167C36.8333 35.8948 36.8626 36.3661 36.905 36.8334H5.66671C4.10484 36.8334 2.83342 35.562 2.83342 34.0001V5.66671C2.83342 5.26548 2.92201 4.88657 3.07315 4.54046L24.1748 21.845C24.9993 22.3832 25.947 22.6668 26.9168 22.6668C27.8493 22.6668 28.7609 22.404 29.5634 21.906C29.6436 21.8631 29.7197 21.8119 29.7917 21.7524L50.7601 4.54019C50.9114 4.88657 51.0001 5.26548 51.0001 5.66684V19.9051H51ZM52.4167 39.6667C50.0731 39.6667 48.1667 37.7603 48.1667 35.4167C48.1667 33.0731 50.0731 31.1667 52.4167 31.1667C54.7603 31.1667 56.6667 33.0731 56.6667 35.4167C56.6667 37.7603 54.7603 39.6667 52.4167 39.6667Z" fill="#1E50FF"/>
</svg>
