<svg width="54" height="54" viewBox="0 0 54 54" fill="none" xmlns="http://www.w3.org/2000/svg">
<path d="M27.705 29.471C27.6051 29.4493 27.5026 29.4455 27.4014 29.4606C26.3871 29.3425 25.6221 28.4844 25.6203 27.4637C25.6203 26.9746 25.2237 26.578 24.7346 26.578C24.2454 26.578 23.8488 26.9746 23.8488 27.4637C23.8514 29.1682 24.9915 30.6612 26.635 31.1123V31.9981C26.635 32.4872 27.0316 32.8838 27.5207 32.8838C28.0099 32.8838 28.4065 32.4872 28.4065 31.9981V31.1659C30.3034 30.7689 31.5927 29.0021 31.3933 27.0745C31.1935 25.1469 29.5695 23.682 27.6314 23.6815C26.5208 23.6815 25.6203 22.7811 25.6203 21.6704C25.6203 20.5598 26.5208 19.6593 27.6314 19.6593C28.7421 19.6593 29.6426 20.5598 29.6426 21.6704C29.6426 22.1596 30.0392 22.5562 30.5283 22.5562C31.0175 22.5562 31.4141 22.1596 31.4141 21.6704C31.4115 19.8808 30.1577 18.3372 28.4065 17.9678V17.1616C28.4065 16.6725 28.0099 16.2759 27.5207 16.2759C27.0316 16.2759 26.635 16.6725 26.635 17.1616V18.0219C24.8072 18.521 23.6308 20.2955 23.8826 22.1734C24.1343 24.0513 25.7367 25.4531 27.6314 25.4526C28.7274 25.4526 29.6214 26.3302 29.6413 27.4257C29.6616 28.5212 28.8001 29.4312 27.705 29.471Z" fill="#1E50FF"/>
<path d="M14.7871 24.6351C14.7871 31.7289 20.5376 37.4794 27.6315 37.4794C34.7253 37.4794 40.4758 31.7289 40.4758 24.6351C40.4758 17.5413 34.7253 11.7908 27.6315 11.7908C20.5411 11.7986 14.7954 17.5447 14.7871 24.6351ZM27.6315 13.5623C33.747 13.5623 38.7043 18.5196 38.7043 24.6351C38.7043 30.7506 33.747 35.7079 27.6315 35.7079C21.5159 35.7079 16.5587 30.7506 16.5587 24.6351C16.5656 18.5226 21.519 13.5692 27.6315 13.5623Z" fill="#1E50FF"/>
<path d="M44.8423 39.6631L37.9037 42.9415C36.9457 41.1596 35.108 40.0256 33.0857 39.9685L26.6804 39.7924C25.6662 39.7635 24.671 39.5066 23.7692 39.0408L23.1175 38.703C19.7803 36.9635 15.8026 36.9678 12.4689 38.7142L12.5096 37.2377C12.523 36.7485 12.1376 36.3411 11.6485 36.3277L4.62472 36.1344C4.13557 36.121 3.72859 36.5063 3.71518 36.9955L3.2909 52.4088C3.27749 52.898 3.66285 53.3054 4.152 53.3188L11.1758 53.5121H11.2C11.6801 53.5121 12.0728 53.1302 12.0857 52.6506L12.1061 51.9132L13.9308 50.9362C14.647 50.5508 15.4843 50.4591 16.2667 50.6806L27.1631 53.7388C27.1821 53.7444 27.2011 53.7487 27.2206 53.753C28.0082 53.9178 28.8109 54.0004 29.6153 54C31.3194 54.0009 33.0035 53.6337 34.5523 52.9226C34.5903 52.9053 34.6271 52.885 34.6621 52.8621L50.4608 42.643C50.8544 42.3883 50.9816 41.8715 50.7511 41.4632C49.5781 39.382 46.9766 38.5892 44.8423 39.6631ZM5.0862 51.5724L5.4616 37.9297L10.7143 38.0741L10.3389 51.7173L5.0862 51.5724ZM33.7543 51.3406C31.8301 52.209 29.6811 52.4486 27.6129 52.0261L16.7459 48.9757C15.5228 48.6301 14.2136 48.7733 13.0948 49.3749L12.1623 49.8744L12.4118 40.8036C15.3667 38.8384 19.1562 38.6364 22.3031 40.276L22.9548 40.6138C24.094 41.202 25.3505 41.5263 26.6319 41.5635L33.0377 41.7395C34.8369 41.7914 36.3649 43.0725 36.7299 44.8354L27.1886 44.572C26.6994 44.5586 26.2924 44.9444 26.2786 45.4331C26.2652 45.9222 26.651 46.3296 27.1397 46.3431L37.6693 46.6328H37.6939C38.1736 46.6324 38.5659 46.2505 38.5788 45.7713C38.5896 45.3864 38.5611 45.001 38.4932 44.6221L45.61 41.2595C45.6169 41.2564 45.6238 41.253 45.6307 41.2495C46.6402 40.7387 47.8607 40.9096 48.6911 41.6781L33.7543 51.3406Z" fill="#1E50FF"/>
<path d="M28.5172 9.30044V0.885756C28.5172 0.396601 28.1206 0 27.6314 0C27.1423 0 26.7457 0.396601 26.7457 0.885756V9.30044C26.7457 9.78959 27.1423 10.1862 27.6314 10.1862C28.1206 10.1862 28.5172 9.78959 28.5172 9.30044Z" fill="#1E50FF"/>
<path d="M35.1604 9.30037V5.31447C35.1604 4.82531 34.7638 4.42871 34.2746 4.42871C33.7855 4.42871 33.3889 4.82531 33.3889 5.31447V9.30037C33.3889 9.78952 33.7855 10.1861 34.2746 10.1861C34.7638 10.1861 35.1604 9.78952 35.1604 9.30037Z" fill="#1E50FF"/>
<path d="M21.8741 9.30037V5.31447C21.8741 4.82531 21.4774 4.42871 20.9883 4.42871C20.4991 4.42871 20.1025 4.82531 20.1025 5.31447V9.30037C20.1025 9.78952 20.4991 10.1861 20.9883 10.1861C21.4774 10.1861 21.8741 9.78952 21.8741 9.30037Z" fill="#1E50FF"/>
</svg>
