<svg width="405" height="405" viewBox="0 0 405 405" fill="none" xmlns="http://www.w3.org/2000/svg">
<ellipse cx="23.8305" cy="219.959" rx="4.20255" ry="4.21411" transform="rotate(-45 23.8305 219.959)" fill="#E1F3FC"/>
<ellipse cx="41.6604" cy="202.13" rx="4.20255" ry="4.21411" transform="rotate(-45 41.6604 202.13)" fill="#E1F3FC"/>
<ellipse cx="5.95178" cy="202.08" rx="4.20255" ry="4.21411" transform="rotate(-45 5.95178 202.08)" fill="#E1F3FC"/>
<ellipse cx="23.7815" cy="184.251" rx="4.20255" ry="4.21411" transform="rotate(-45 23.7815 184.251)" fill="#E1F3FC"/>
<ellipse cx="59.4904" cy="184.299" rx="4.20255" ry="4.21411" transform="rotate(-45 59.4904 184.299)" fill="#E1F3FC"/>
<ellipse cx="77.3202" cy="166.47" rx="4.20255" ry="4.21411" transform="rotate(-45 77.3202 166.47)" fill="#E1F3FC"/>
<ellipse cx="41.6114" cy="166.421" rx="4.20255" ry="4.21411" transform="rotate(-45 41.6114 166.421)" fill="#E1F3FC"/>
<ellipse cx="59.4413" cy="148.591" rx="4.20255" ry="4.21411" transform="rotate(-45 59.4413 148.591)" fill="#E1F3FC"/>
<ellipse cx="95.1501" cy="148.64" rx="4.20255" ry="4.21411" transform="rotate(-45 95.1501 148.64)" fill="#E1F3FC"/>
<ellipse cx="112.98" cy="130.81" rx="4.20255" ry="4.21411" transform="rotate(-45 112.98 130.81)" fill="#E1F3FC"/>
<ellipse cx="77.2712" cy="130.761" rx="4.20255" ry="4.21411" transform="rotate(-45 77.2712 130.761)" fill="#E1F3FC"/>
<ellipse cx="95.1011" cy="112.931" rx="4.20255" ry="4.21411" transform="rotate(-45 95.1011 112.931)" fill="#E1F3FC"/>
<ellipse cx="130.81" cy="112.98" rx="4.20255" ry="4.21411" transform="rotate(-45 130.81 112.98)" fill="#E1F3FC"/>
<ellipse cx="148.64" cy="95.1501" rx="4.20255" ry="4.21411" transform="rotate(-45 148.64 95.1501)" fill="#E1F3FC"/>
<ellipse cx="112.931" cy="95.1011" rx="4.20255" ry="4.21411" transform="rotate(-45 112.931 95.1011)" fill="#E1F3FC"/>
<ellipse cx="130.761" cy="77.2712" rx="4.20255" ry="4.21411" transform="rotate(-45 130.761 77.2712)" fill="#E1F3FC"/>
<ellipse cx="166.47" cy="77.3204" rx="4.20255" ry="4.21411" transform="rotate(-45 166.47 77.3204)" fill="#E1F3FC"/>
<ellipse cx="184.3" cy="59.4904" rx="4.20255" ry="4.21411" transform="rotate(-45 184.3 59.4904)" fill="#E1F3FC"/>
<ellipse cx="148.592" cy="59.4404" rx="4.20255" ry="4.21411" transform="rotate(-45 148.592 59.4404)" fill="#E1F3FC"/>
<ellipse cx="166.421" cy="41.6116" rx="4.20255" ry="4.21411" transform="rotate(-45 166.421 41.6116)" fill="#E1F3FC"/>
<ellipse cx="202.13" cy="41.6605" rx="4.20255" ry="4.21411" transform="rotate(-45 202.13 41.6605)" fill="#E1F3FC"/>
<ellipse cx="219.96" cy="23.8306" rx="4.20255" ry="4.21411" transform="rotate(-45 219.96 23.8306)" fill="#E1F3FC"/>
<ellipse cx="184.251" cy="23.7816" rx="4.20255" ry="4.21411" transform="rotate(-45 184.251 23.7816)" fill="#E1F3FC"/>
<ellipse cx="202.081" cy="5.95166" rx="4.20255" ry="4.21411" transform="rotate(-45 202.081 5.95166)" fill="#E1F3FC"/>
<ellipse cx="59.5885" cy="255.718" rx="4.20255" ry="4.21411" transform="rotate(-45 59.5885 255.718)" fill="#E1F3FC"/>
<ellipse cx="77.4184" cy="237.888" rx="4.20255" ry="4.21411" transform="rotate(-45 77.4184 237.888)" fill="#E1F3FC"/>
<ellipse cx="41.7095" cy="237.839" rx="4.20255" ry="4.21411" transform="rotate(-45 41.7095 237.839)" fill="#E1F3FC"/>
<ellipse cx="59.5394" cy="220.009" rx="4.20255" ry="4.21411" transform="rotate(-45 59.5394 220.009)" fill="#E1F3FC"/>
<ellipse cx="95.2483" cy="220.058" rx="4.20255" ry="4.21411" transform="rotate(-45 95.2483 220.058)" fill="#E1F3FC"/>
<ellipse cx="113.078" cy="202.228" rx="4.20255" ry="4.21411" transform="rotate(-45 113.078 202.228)" fill="#E1F3FC"/>
<ellipse cx="77.3694" cy="202.179" rx="4.20255" ry="4.21411" transform="rotate(-45 77.3694 202.179)" fill="#E1F3FC"/>
<ellipse cx="95.1992" cy="184.349" rx="4.20255" ry="4.21411" transform="rotate(-45 95.1992 184.349)" fill="#E1F3FC"/>
<ellipse cx="130.908" cy="184.398" rx="4.20255" ry="4.21411" transform="rotate(-45 130.908 184.398)" fill="#E1F3FC"/>
<ellipse cx="148.738" cy="166.568" rx="4.20255" ry="4.21411" transform="rotate(-45 148.738 166.568)" fill="#E1F3FC"/>
<ellipse cx="113.029" cy="166.519" rx="4.20255" ry="4.21411" transform="rotate(-45 113.029 166.519)" fill="#E1F3FC"/>
<ellipse cx="130.859" cy="148.689" rx="4.20255" ry="4.21411" transform="rotate(-45 130.859 148.689)" fill="#E1F3FC"/>
<ellipse cx="166.568" cy="148.738" rx="4.20255" ry="4.21411" transform="rotate(-45 166.568 148.738)" fill="#E1F3FC"/>
<ellipse cx="184.398" cy="130.908" rx="4.20255" ry="4.21411" transform="rotate(-45 184.398 130.908)" fill="#E1F3FC"/>
<ellipse cx="148.689" cy="130.859" rx="4.20255" ry="4.21411" transform="rotate(-45 148.689 130.859)" fill="#E1F3FC"/>
<ellipse cx="166.519" cy="113.029" rx="4.20255" ry="4.21411" transform="rotate(-45 166.519 113.029)" fill="#E1F3FC"/>
<ellipse cx="202.228" cy="113.078" rx="4.20255" ry="4.21411" transform="rotate(-45 202.228 113.078)" fill="#E1F3FC"/>
<ellipse cx="220.058" cy="95.2482" rx="4.20255" ry="4.21411" transform="rotate(-45 220.058 95.2482)" fill="#E1F3FC"/>
<ellipse cx="184.349" cy="95.1992" rx="4.20255" ry="4.21411" transform="rotate(-45 184.349 95.1992)" fill="#E1F3FC"/>
<ellipse cx="202.179" cy="77.3693" rx="4.20255" ry="4.21411" transform="rotate(-45 202.179 77.3693)" fill="#E1F3FC"/>
<ellipse cx="237.888" cy="77.4186" rx="4.20255" ry="4.21411" transform="rotate(-45 237.888 77.4186)" fill="#E1F3FC"/>
<ellipse cx="255.717" cy="59.5885" rx="4.20255" ry="4.21411" transform="rotate(-45 255.717 59.5885)" fill="#E1F3FC"/>
<ellipse cx="220.009" cy="59.5393" rx="4.20255" ry="4.21411" transform="rotate(-45 220.009 59.5393)" fill="#E1F3FC"/>
<ellipse cx="237.839" cy="41.7097" rx="4.20255" ry="4.21411" transform="rotate(-45 237.839 41.7097)" fill="#E1F3FC"/>
<ellipse cx="95.3464" cy="291.475" rx="4.20255" ry="4.21411" transform="rotate(-45 95.3464 291.475)" fill="#E1F3FC"/>
<ellipse cx="113.176" cy="273.646" rx="4.20255" ry="4.21411" transform="rotate(-45 113.176 273.646)" fill="#E1F3FC"/>
<ellipse cx="77.4675" cy="273.596" rx="4.20255" ry="4.21411" transform="rotate(-45 77.4675 273.596)" fill="#E1F3FC"/>
<ellipse cx="95.2973" cy="255.767" rx="4.20255" ry="4.21411" transform="rotate(-45 95.2973 255.767)" fill="#E1F3FC"/>
<ellipse cx="131.006" cy="255.816" rx="4.20255" ry="4.21411" transform="rotate(-45 131.006 255.816)" fill="#E1F3FC"/>
<ellipse cx="148.836" cy="237.986" rx="4.20255" ry="4.21411" transform="rotate(-45 148.836 237.986)" fill="#E1F3FC"/>
<ellipse cx="113.127" cy="237.937" rx="4.20255" ry="4.21411" transform="rotate(-45 113.127 237.937)" fill="#E1F3FC"/>
<ellipse cx="130.957" cy="220.107" rx="4.20255" ry="4.21411" transform="rotate(-45 130.957 220.107)" fill="#E1F3FC"/>
<ellipse cx="166.666" cy="220.156" rx="4.20255" ry="4.21411" transform="rotate(-45 166.666 220.156)" fill="#E1F3FC"/>
<ellipse cx="184.496" cy="202.326" rx="4.20255" ry="4.21411" transform="rotate(-45 184.496 202.326)" fill="#E1F3FC"/>
<ellipse cx="148.787" cy="202.277" rx="4.20255" ry="4.21411" transform="rotate(-45 148.787 202.277)" fill="#E1F3FC"/>
<ellipse cx="166.617" cy="184.447" rx="4.20255" ry="4.21411" transform="rotate(-45 166.617 184.447)" fill="#E1F3FC"/>
<ellipse cx="202.326" cy="184.496" rx="4.20255" ry="4.21411" transform="rotate(-45 202.326 184.496)" fill="#E1F3FC"/>
<ellipse cx="220.156" cy="166.666" rx="4.20255" ry="4.21411" transform="rotate(-45 220.156 166.666)" fill="#E1F3FC"/>
<ellipse cx="184.447" cy="166.617" rx="4.20255" ry="4.21411" transform="rotate(-45 184.447 166.617)" fill="#E1F3FC"/>
<ellipse cx="202.277" cy="148.787" rx="4.20255" ry="4.21411" transform="rotate(-45 202.277 148.787)" fill="#E1F3FC"/>
<ellipse cx="237.986" cy="148.836" rx="4.20255" ry="4.21411" transform="rotate(-45 237.986 148.836)" fill="#E1F3FC"/>
<ellipse cx="255.816" cy="131.006" rx="4.20255" ry="4.21411" transform="rotate(-45 255.816 131.006)" fill="#E1F3FC"/>
<ellipse cx="220.107" cy="130.957" rx="4.20255" ry="4.21411" transform="rotate(-45 220.107 130.957)" fill="#E1F3FC"/>
<ellipse cx="237.937" cy="113.127" rx="4.20255" ry="4.21411" transform="rotate(-45 237.937 113.127)" fill="#E1F3FC"/>
<ellipse cx="273.645" cy="113.176" rx="4.20255" ry="4.21411" transform="rotate(-45 273.645 113.176)" fill="#E1F3FC"/>
<ellipse cx="291.475" cy="95.3463" rx="4.20255" ry="4.21411" transform="rotate(-45 291.475 95.3463)" fill="#E1F3FC"/>
<ellipse cx="255.767" cy="95.2972" rx="4.20255" ry="4.21411" transform="rotate(-45 255.767 95.2972)" fill="#E1F3FC"/>
<ellipse cx="273.596" cy="77.4673" rx="4.20255" ry="4.21411" transform="rotate(-45 273.596 77.4673)" fill="#E1F3FC"/>
<ellipse cx="131.104" cy="327.233" rx="4.20255" ry="4.21411" transform="rotate(-45 131.104 327.233)" fill="#E1F3FC"/>
<ellipse cx="148.934" cy="309.404" rx="4.20255" ry="4.21411" transform="rotate(-45 148.934 309.404)" fill="#E1F3FC"/>
<ellipse cx="113.225" cy="309.355" rx="4.20255" ry="4.21411" transform="rotate(-45 113.225 309.355)" fill="#E1F3FC"/>
<ellipse cx="131.055" cy="291.525" rx="4.20255" ry="4.21411" transform="rotate(-45 131.055 291.525)" fill="#E1F3FC"/>
<ellipse cx="166.764" cy="291.574" rx="4.20255" ry="4.21411" transform="rotate(-45 166.764 291.574)" fill="#E1F3FC"/>
<ellipse cx="184.594" cy="273.744" rx="4.20255" ry="4.21411" transform="rotate(-45 184.594 273.744)" fill="#E1F3FC"/>
<ellipse cx="148.885" cy="273.695" rx="4.20255" ry="4.21411" transform="rotate(-45 148.885 273.695)" fill="#E1F3FC"/>
<ellipse cx="166.715" cy="255.865" rx="4.20255" ry="4.21411" transform="rotate(-45 166.715 255.865)" fill="#E1F3FC"/>
<ellipse cx="202.424" cy="255.914" rx="4.20255" ry="4.21411" transform="rotate(-45 202.424 255.914)" fill="#E1F3FC"/>
<ellipse cx="220.254" cy="238.084" rx="4.20255" ry="4.21411" transform="rotate(-45 220.254 238.084)" fill="#E1F3FC"/>
<ellipse cx="184.545" cy="238.035" rx="4.20255" ry="4.21411" transform="rotate(-45 184.545 238.035)" fill="#E1F3FC"/>
<ellipse cx="202.375" cy="220.205" rx="4.20255" ry="4.21411" transform="rotate(-45 202.375 220.205)" fill="#E1F3FC"/>
<ellipse cx="238.084" cy="220.254" rx="4.20255" ry="4.21411" transform="rotate(-45 238.084 220.254)" fill="#E1F3FC"/>
<ellipse cx="255.914" cy="202.424" rx="4.20255" ry="4.21411" transform="rotate(-45 255.914 202.424)" fill="#E1F3FC"/>
<ellipse cx="220.205" cy="202.375" rx="4.20255" ry="4.21411" transform="rotate(-45 220.205 202.375)" fill="#E1F3FC"/>
<ellipse cx="238.035" cy="184.545" rx="4.20255" ry="4.21411" transform="rotate(-45 238.035 184.545)" fill="#E1F3FC"/>
<ellipse cx="273.744" cy="184.594" rx="4.20255" ry="4.21411" transform="rotate(-45 273.744 184.594)" fill="#E1F3FC"/>
<ellipse cx="291.573" cy="166.764" rx="4.20255" ry="4.21411" transform="rotate(-45 291.573 166.764)" fill="#E1F3FC"/>
<ellipse cx="255.865" cy="166.715" rx="4.20255" ry="4.21411" transform="rotate(-45 255.865 166.715)" fill="#E1F3FC"/>
<ellipse cx="273.695" cy="148.885" rx="4.20255" ry="4.21411" transform="rotate(-45 273.695 148.885)" fill="#E1F3FC"/>
<ellipse cx="309.403" cy="148.934" rx="4.20255" ry="4.21411" transform="rotate(-45 309.403 148.934)" fill="#E1F3FC"/>
<ellipse cx="327.233" cy="131.104" rx="4.20255" ry="4.21411" transform="rotate(-45 327.233 131.104)" fill="#E1F3FC"/>
<ellipse cx="291.524" cy="131.055" rx="4.20255" ry="4.21411" transform="rotate(-45 291.524 131.055)" fill="#E1F3FC"/>
<ellipse cx="309.354" cy="113.225" rx="4.20255" ry="4.21411" transform="rotate(-45 309.354 113.225)" fill="#E1F3FC"/>
<ellipse cx="166.862" cy="362.991" rx="4.20255" ry="4.21411" transform="rotate(-45 166.862 362.991)" fill="#E1F3FC"/>
<ellipse cx="184.692" cy="345.161" rx="4.20255" ry="4.21411" transform="rotate(-45 184.692 345.161)" fill="#E1F3FC"/>
<ellipse cx="148.983" cy="345.112" rx="4.20255" ry="4.21411" transform="rotate(-45 148.983 345.112)" fill="#E1F3FC"/>
<ellipse cx="166.813" cy="327.282" rx="4.20255" ry="4.21411" transform="rotate(-45 166.813 327.282)" fill="#E1F3FC"/>
<ellipse cx="202.522" cy="327.331" rx="4.20255" ry="4.21411" transform="rotate(-45 202.522 327.331)" fill="#E1F3FC"/>
<ellipse cx="220.352" cy="309.502" rx="4.20255" ry="4.21411" transform="rotate(-45 220.352 309.502)" fill="#E1F3FC"/>
<ellipse cx="184.643" cy="309.453" rx="4.20255" ry="4.21411" transform="rotate(-45 184.643 309.453)" fill="#E1F3FC"/>
<ellipse cx="202.473" cy="291.623" rx="4.20255" ry="4.21411" transform="rotate(-45 202.473 291.623)" fill="#E1F3FC"/>
<ellipse cx="238.182" cy="291.672" rx="4.20255" ry="4.21411" transform="rotate(-45 238.182 291.672)" fill="#E1F3FC"/>
<ellipse cx="256.012" cy="273.842" rx="4.20255" ry="4.21411" transform="rotate(-45 256.012 273.842)" fill="#E1F3FC"/>
<ellipse cx="220.303" cy="273.793" rx="4.20255" ry="4.21411" transform="rotate(-45 220.303 273.793)" fill="#E1F3FC"/>
<ellipse cx="238.133" cy="255.963" rx="4.20255" ry="4.21411" transform="rotate(-45 238.133 255.963)" fill="#E1F3FC"/>
<ellipse cx="273.842" cy="256.012" rx="4.20255" ry="4.21411" transform="rotate(-45 273.842 256.012)" fill="#E1F3FC"/>
<ellipse cx="291.672" cy="238.182" rx="4.20255" ry="4.21411" transform="rotate(-45 291.672 238.182)" fill="#E1F3FC"/>
<ellipse cx="255.963" cy="238.133" rx="4.20255" ry="4.21411" transform="rotate(-45 255.963 238.133)" fill="#E1F3FC"/>
<ellipse cx="273.793" cy="220.303" rx="4.20255" ry="4.21411" transform="rotate(-45 273.793 220.303)" fill="#E1F3FC"/>
<ellipse cx="309.501" cy="220.352" rx="4.20255" ry="4.21411" transform="rotate(-45 309.501 220.352)" fill="#E1F3FC"/>
<ellipse cx="327.331" cy="202.522" rx="4.20255" ry="4.21411" transform="rotate(-45 327.331 202.522)" fill="#E1F3FC"/>
<ellipse cx="291.623" cy="202.473" rx="4.20255" ry="4.21411" transform="rotate(-45 291.623 202.473)" fill="#E1F3FC"/>
<ellipse cx="309.452" cy="184.643" rx="4.20255" ry="4.21411" transform="rotate(-45 309.452 184.643)" fill="#E1F3FC"/>
<ellipse cx="345.161" cy="184.692" rx="4.20255" ry="4.21411" transform="rotate(-45 345.161 184.692)" fill="#E1F3FC"/>
<ellipse cx="362.991" cy="166.862" rx="4.20255" ry="4.21411" transform="rotate(-45 362.991 166.862)" fill="#E1F3FC"/>
<ellipse cx="327.282" cy="166.813" rx="4.20255" ry="4.21411" transform="rotate(-45 327.282 166.813)" fill="#E1F3FC"/>
<ellipse cx="345.112" cy="148.983" rx="4.20255" ry="4.21411" transform="rotate(-45 345.112 148.983)" fill="#E1F3FC"/>
<ellipse cx="202.62" cy="398.749" rx="4.20255" ry="4.21411" transform="rotate(-45 202.62 398.749)" fill="#E1F3FC"/>
<ellipse cx="220.45" cy="380.919" rx="4.20255" ry="4.21411" transform="rotate(-45 220.45 380.919)" fill="#E1F3FC"/>
<ellipse cx="184.741" cy="380.87" rx="4.20255" ry="4.21411" transform="rotate(-45 184.741 380.87)" fill="#E1F3FC"/>
<ellipse cx="202.571" cy="363.04" rx="4.20255" ry="4.21411" transform="rotate(-45 202.571 363.04)" fill="#E1F3FC"/>
<ellipse cx="238.28" cy="363.089" rx="4.20255" ry="4.21411" transform="rotate(-45 238.28 363.089)" fill="#E1F3FC"/>
<ellipse cx="256.11" cy="345.259" rx="4.20255" ry="4.21411" transform="rotate(-45 256.11 345.259)" fill="#E1F3FC"/>
<ellipse cx="220.401" cy="345.21" rx="4.20255" ry="4.21411" transform="rotate(-45 220.401 345.21)" fill="#E1F3FC"/>
<ellipse cx="238.231" cy="327.381" rx="4.20255" ry="4.21411" transform="rotate(-45 238.231 327.381)" fill="#E1F3FC"/>
<ellipse cx="273.94" cy="327.43" rx="4.20255" ry="4.21411" transform="rotate(-45 273.94 327.43)" fill="#E1F3FC"/>
<ellipse cx="291.77" cy="309.6" rx="4.20255" ry="4.21411" transform="rotate(-45 291.77 309.6)" fill="#E1F3FC"/>
<ellipse cx="256.061" cy="309.551" rx="4.20255" ry="4.21411" transform="rotate(-45 256.061 309.551)" fill="#E1F3FC"/>
<ellipse cx="273.891" cy="291.721" rx="4.20255" ry="4.21411" transform="rotate(-45 273.891 291.721)" fill="#E1F3FC"/>
<ellipse cx="309.6" cy="291.77" rx="4.20255" ry="4.21411" transform="rotate(-45 309.6 291.77)" fill="#E1F3FC"/>
<ellipse cx="327.43" cy="273.94" rx="4.20255" ry="4.21411" transform="rotate(-45 327.43 273.94)" fill="#E1F3FC"/>
<ellipse cx="291.721" cy="273.891" rx="4.20255" ry="4.21411" transform="rotate(-45 291.721 273.891)" fill="#E1F3FC"/>
<ellipse cx="309.551" cy="256.061" rx="4.20255" ry="4.21411" transform="rotate(-45 309.551 256.061)" fill="#E1F3FC"/>
<ellipse cx="345.259" cy="256.11" rx="4.20255" ry="4.21411" transform="rotate(-45 345.259 256.11)" fill="#E1F3FC"/>
<ellipse cx="363.089" cy="238.28" rx="4.20255" ry="4.21411" transform="rotate(-45 363.089 238.28)" fill="#E1F3FC"/>
<ellipse cx="327.38" cy="238.231" rx="4.20255" ry="4.21411" transform="rotate(-45 327.38 238.231)" fill="#E1F3FC"/>
<ellipse cx="345.21" cy="220.401" rx="4.20255" ry="4.21411" transform="rotate(-45 345.21 220.401)" fill="#E1F3FC"/>
<ellipse cx="380.919" cy="220.45" rx="4.20255" ry="4.21411" transform="rotate(-45 380.919 220.45)" fill="#E1F3FC"/>
<ellipse cx="398.749" cy="202.62" rx="4.20255" ry="4.21411" transform="rotate(-45 398.749 202.62)" fill="#E1F3FC"/>
<ellipse cx="363.04" cy="202.571" rx="4.20255" ry="4.21411" transform="rotate(-45 363.04 202.571)" fill="#E1F3FC"/>
<ellipse cx="380.87" cy="184.741" rx="4.20255" ry="4.21411" transform="rotate(-45 380.87 184.741)" fill="#E1F3FC"/>
</svg>
