<svg width="61" height="61" viewBox="0 0 61 61" fill="none" xmlns="http://www.w3.org/2000/svg">
<path d="M35.5834 3.05005H25.4167C24.8556 3.05005 24.4001 3.50552 24.4001 4.06668C24.4001 4.62783 24.8556 5.0833 25.4167 5.0833H35.5834C36.1445 5.0833 36.6 4.62783 36.6 4.06668C36.6 3.50552 36.1445 3.05005 35.5834 3.05005Z" fill="#1E50FF"/>
<path d="M42.7 3.05005H41.6834C41.1222 3.05005 40.6668 3.50552 40.6668 4.06668C40.6668 4.62783 41.1222 5.0833 41.6834 5.0833H42.7C43.2612 5.0833 43.7167 4.62783 43.7167 4.06668C43.7167 3.50552 43.2612 3.05005 42.7 3.05005Z" fill="#1E50FF"/>
<path d="M31.7627 51.8501H29.2383C27.692 51.8501 26.4334 53.1087 26.4334 54.655V55.1461C26.4334 56.6924 27.692 57.9501 29.2374 57.9501H31.7617C33.308 57.9501 34.5666 56.6924 34.5666 55.1461V54.655C34.5666 53.1087 33.308 51.8501 31.7627 51.8501ZM32.5334 55.1461C32.5334 55.5711 32.1878 55.9167 31.7628 55.9167H29.2383C28.8124 55.9167 28.4666 55.5711 28.4666 55.1461V54.655C28.4666 54.2291 28.8123 53.8833 29.2383 53.8833H31.7617C32.1877 53.8833 32.5334 54.229 32.5334 54.655V55.1461Z" fill="#1E50FF"/>
<path d="M44.1091 0H16.8919C14.8657 0 13.2166 1.64903 13.2166 3.67525V57.3248C13.2166 59.351 14.8657 61 16.8919 61H44.108C46.1342 61 47.7833 59.351 47.7833 57.3258V3.67525C47.7834 1.64903 46.1344 0 44.1091 0ZM45.75 57.3248C45.75 58.2296 45.014 58.9666 44.1091 58.9666H16.8919C15.9861 58.9666 15.25 58.2295 15.25 57.3257V3.67525C15.25 2.77038 15.9861 2.03337 16.8919 2.03337H44.108C45.0138 2.03337 45.7499 2.7705 45.7499 3.67525V57.3248H45.75Z" fill="#1E50FF"/>
<path d="M46.7666 6.1001H14.2334C13.6722 6.1001 13.2167 6.55557 13.2167 7.11672V49.8167C13.2167 50.3779 13.6722 50.8334 14.2334 50.8334H46.7667C47.3279 50.8334 47.7834 50.3779 47.7834 49.8167V7.11672C47.7834 6.55557 47.3279 6.1001 46.7666 6.1001ZM45.75 48.8001H15.25V8.13347H45.75V48.8001Z" fill="#1E50FF"/>
</svg>
