<svg width="92" height="92" viewBox="0 0 92 92" fill="none" xmlns="http://www.w3.org/2000/svg">
<path d="M59.6373 28.8659C59.4167 28.3893 58.9394 28.084 58.4142 28.084C57.889 28.084 57.4117 28.3892 57.1911 28.8659L53.8176 36.1569C53.087 37.7361 55.5358 38.8621 56.2637 37.2887L56.3679 37.0634H60.4601L60.5643 37.2887C60.8768 37.9642 61.6777 38.2585 62.3533 37.9458C63.0287 37.6334 63.3229 36.8323 63.0104 36.1569L59.6373 28.8659ZM57.6153 34.3679L58.4144 32.6411L59.2133 34.3679H57.6153Z" fill="#7C8DCA"/>
<path d="M69.2023 27.9753H66.6993C65.9548 27.9753 65.3516 28.5787 65.3516 29.323V36.7229C65.3516 37.4672 65.9548 38.0705 66.6993 38.0705H69.2023C71.9855 38.0705 74.2499 35.8061 74.2499 33.0229C74.2499 30.2398 71.9855 27.9753 69.2023 27.9753ZM69.2023 35.3751H68.0469V30.6707H69.2023C70.4995 30.6707 71.5546 31.726 71.5546 33.0229C71.5546 34.3199 70.4995 35.3751 69.2023 35.3751Z" fill="#7C8DCA"/>
<path d="M79.3599 14.3888C79.3599 13.6445 78.7567 13.0411 78.0122 13.0411H9.34015C7.60187 13.0411 7.60187 15.7364 9.34015 15.7364H78.0122C78.7567 15.7364 79.3599 15.133 79.3599 14.3888Z" fill="#7C8DCA"/>
<path d="M42.9264 20.4948H9.34015C7.60187 20.4948 7.60187 23.1901 9.34015 23.1901H42.9264C44.6646 23.1901 44.6646 20.4948 42.9264 20.4948V20.4948Z" fill="#7C8DCA"/>
<path d="M42.9263 27.9484H9.34009C7.60181 27.9484 7.60181 30.6437 9.34009 30.6437H42.9263C44.6646 30.6437 44.6646 27.9484 42.9263 27.9484Z" fill="#7C8DCA"/>
<path d="M42.9263 35.402H9.34009C7.60181 35.402 7.60181 38.0973 9.34009 38.0973H42.9263C44.6646 38.0973 44.6646 35.402 42.9263 35.402Z" fill="#7C8DCA"/>
<path d="M42.9263 42.8555H9.34009C7.60181 42.8555 7.60181 45.5508 9.34009 45.5508H42.9263C44.6646 45.5508 44.6646 42.8555 42.9263 42.8555Z" fill="#7C8DCA"/>
<path d="M91.1885 50.9157L88.1872 48.6955V10.4389C88.1872 6.3083 84.8266 2.94763 80.6959 2.94763H19.5858C17.8475 2.94763 17.8475 5.64292 19.5858 5.64292H80.6959C83.3406 5.64292 85.4919 7.79449 85.4919 10.4389V46.7017L79.3242 42.1393C79.3469 42.0416 79.3598 41.9402 79.3598 41.8357V21.8423C79.3598 21.0981 78.7566 20.4947 78.0121 20.4947H49.9308C49.1864 20.4947 48.5832 21.0981 48.5832 21.8423V44.2032C48.5832 44.9475 49.1864 45.5508 49.9308 45.5508H74.4993V52.3928H2.69529V10.4398C2.69529 7.79484 4.84721 5.6431 7.49201 5.6431H12.039C13.7773 5.6431 13.7773 2.94781 12.039 2.94781H7.49201C3.36103 2.94763 0 6.30866 0 10.4398V62.4751C0 66.6063 3.36103 69.9671 7.49201 69.9671H35.1727V80.0164H27.7029C21.8868 80.0164 21.8694 89.0523 27.7029 89.0523H51.5699C53.3082 89.0523 53.3082 86.357 51.5699 86.357H27.7029C25.3578 86.357 25.3541 82.7117 27.7029 82.7117H60.4841C62.8292 82.7117 62.833 86.357 60.4841 86.357H59.4761C57.7378 86.357 57.7378 89.0523 59.4761 89.0523H60.4841C66.3002 89.0523 66.3176 80.0164 60.4841 80.0164H53.2124V69.9671H80.6952C84.8264 69.9671 88.1872 66.6061 88.1872 62.4751V54.5402H90.0249C91.9993 54.5402 92.688 52.0246 91.1885 50.9157V50.9157ZM82.1537 51.8479C81.5221 51.8555 80.925 52.2348 80.5561 52.7476L77.1843 57.3235V43.9092L87.9166 51.8479H82.1537ZM51.2785 42.8556V23.19H76.6645V40.529C76.2963 40.4943 75.9188 40.5619 75.5733 40.7374C74.8948 41.0821 74.4761 41.7692 74.4808 42.5301L74.4828 42.8556H51.2785ZM50.5173 80.0166H37.8681V69.9673H50.5173V80.0166ZM85.4919 62.4751C85.4919 65.1201 83.34 67.2718 80.6952 67.2718H7.49201C4.84721 67.2718 2.69529 65.1201 2.69529 62.4751V55.088H74.5575V59.4848C74.569 61.3666 77.1064 62.1628 78.2028 60.6385L82.5388 54.6076H85.4921V62.4751H85.4919Z" fill="#7C8DCA"/>
</svg>
