<svg width="84" height="84" viewBox="0 0 84 84" fill="none" xmlns="http://www.w3.org/2000/svg">
<path d="M49.0014 27.0726C43.731 31.1231 42.7386 38.7064 46.7892 43.9768C48.7486 46.5261 51.5878 48.1605 54.7838 48.5789C55.3168 48.6486 55.8488 48.6831 56.3775 48.6831C59.018 48.6831 61.5692 47.8216 63.6933 46.189C66.2427 44.2296 67.8771 41.3903 68.2954 38.1944C68.7136 34.9985 67.8649 31.8342 65.9057 29.2848C61.855 24.0145 54.2719 23.0222 49.0014 27.0726ZM65.8563 37.8751C65.5233 40.4196 64.2228 42.6795 62.1943 44.2385C57.9992 47.4624 51.9635 46.6726 48.7395 42.4776C45.5155 38.2827 46.3053 32.247 50.5004 29.0228C52.24 27.6859 54.2957 27.0393 56.3364 27.0393C59.2172 27.0393 62.0681 28.3282 63.9552 30.7837C65.5143 32.8123 66.1894 35.3307 65.8563 37.8751Z" fill="#7C8DCA"/>
<path d="M53.4107 32.8097C54.4292 32.027 55.6933 31.6875 56.9725 31.8552C58.2507 32.0225 59.3857 32.6755 60.1686 33.6942C61.1474 34.9678 63.0797 33.4451 62.1192 32.1951C59.6733 29.0126 55.094 28.4135 51.9117 30.8592C50.6537 31.826 52.1525 33.7764 53.4107 32.8097Z" fill="#7C8DCA"/>
<path d="M83.9664 23.8794V23.8151C83.9664 17.7564 79.0373 12.8275 72.9786 12.8275H21.8116C20.225 12.8275 20.225 15.2875 21.8116 15.2875H72.9786C77.6808 15.2875 81.5064 19.1129 81.5064 23.8151V23.8794C81.5064 28.5816 77.681 32.4071 72.9786 32.4071H72.6421C72.0805 30.2344 71.087 28.1892 69.6923 26.3746C64.037 19.0163 53.4496 17.6306 46.0912 23.286C43.0037 25.659 40.9682 28.9004 40.0628 32.4072H10.9878C6.28556 32.4072 2.45995 28.5818 2.45995 23.8796V23.8153C2.45995 19.1131 6.2854 15.2876 10.9878 15.2876H14.1038C15.6904 15.2876 15.6904 12.8277 14.1038 12.8277H10.9878C4.92909 12.8275 0 17.7564 0 23.8151V23.8794C0 29.9381 4.92909 34.867 10.9878 34.867H39.6173C39.1791 39.0135 40.2672 43.3279 43.0026 46.887C45.7421 50.4516 49.7059 52.7359 54.1634 53.3193C54.9053 53.4164 55.6461 53.4643 56.382 53.4643C58.8016 53.4643 61.1674 52.9418 63.349 51.939L65.5062 54.746C63.9845 55.9402 63.7028 58.1468 64.8844 59.6841C65.5804 60.5895 66.6315 61.0648 67.6938 61.0648C68.1668 61.0648 68.6419 60.9703 69.089 60.7779L75.6997 69.4033C79.294 74.0801 86.6598 68.5312 83.0122 63.7853L76.3991 55.1568C76.7909 54.6613 77.0465 54.0702 77.1307 53.4277C77.2533 52.4906 77.0037 51.5618 76.4277 50.8126C75.2463 49.2753 73.0416 48.9797 71.4958 50.1427L69.3361 47.3326C70.2967 46.1683 71.1009 44.8789 71.7155 43.5011C72.3617 42.0521 70.1152 41.05 69.4688 42.499C68.5043 44.6612 66.9952 46.572 65.1046 48.0252C62.0611 50.3642 58.2885 51.3783 54.4825 50.88C50.6764 50.3819 47.292 48.4314 44.953 45.3878C40.1241 39.1049 41.3072 30.0651 47.5901 25.2362C53.873 20.4074 62.9129 21.5906 67.7417 27.8735C69.5536 30.2311 70.5785 33.0415 70.7057 36.0008C70.7739 37.5859 73.2314 37.4805 73.1633 35.8954C73.1484 35.5497 73.1202 35.2063 73.0846 34.8644C79.0945 34.8068 83.9664 29.9023 83.9664 23.8794ZM81.488 66.8728C81.2465 68.7183 78.7872 69.3838 77.6513 67.9056L71.1058 59.3653L74.5164 56.7441L81.0608 65.2832C81.4108 65.7386 81.5625 66.3032 81.488 66.8728C81.5625 66.3032 81.4134 67.4424 81.488 66.8728ZM74.4772 52.3116C74.8356 52.778 74.7457 53.4651 74.2793 53.8236L68.347 58.3831C67.8756 58.7452 67.1972 58.6566 66.8348 58.1852C66.4724 57.7139 66.5613 57.0355 67.0327 56.673L72.965 52.1138C73.4363 51.7515 74.1149 51.8401 74.4772 52.3116ZM66.6036 49.9757C66.9526 49.7074 67.2891 49.4244 67.6152 49.1304L69.4472 51.5141L67.3586 53.1193L65.5279 50.7371C65.8939 50.4981 66.2532 50.2449 66.6036 49.9757Z" fill="#7C8DCA"/>
<path d="M10.9057 24.0265C10.9057 24.7057 11.4565 25.2565 12.1357 25.2565H34.9312C36.5179 25.2565 36.5179 22.7965 34.9312 22.7965H12.1357C11.4565 22.7965 10.9057 23.3473 10.9057 24.0265Z" fill="#7C8DCA"/>
</svg>
